<?xml version="1.0" encoding="UTF-8"?>
<!DOCTYPE svg PUBLIC "-//W3C//DTD SVG 1.1//EN" "http://www.w3.org/Graphics/SVG/1.1/DTD/svg11.dtd">
<!-- Creator: CorelDRAW X7 -->
<svg xmlns="http://www.w3.org/2000/svg" xml:space="preserve" width="1200px" height="1200px" version="1.1" style="shape-rendering:geometricPrecision; text-rendering:geometricPrecision; image-rendering:optimizeQuality; fill-rule:evenodd; clip-rule:evenodd"
viewBox="0 0 1200 1200"
 xmlns:xlink="http://www.w3.org/1999/xlink">
 <defs>
  <style type="text/css">
   <![CDATA[
    .fil0 {fill:#15639D}
   ]]>
  </style>
 </defs>
 <g id="Слой_x0020_1">
  <metadata id="CorelCorpID_0Corel-Layer"/>
  <path class="fil0" d="M432 501c0,-25 4,-49 11,-71 7,-22 18,-41 32,-57 14,-17 32,-30 55,-40 22,-9 48,-14 77,-14 49,0 88,14 117,40 29,27 44,63 44,108 0,27 -5,51 -15,70 -10,20 -25,40 -45,59 -4,3 -9,8 -16,15 -7,6 -12,10 -14,13 -3,3 -7,7 -12,12 -4,5 -8,9 -10,12 -2,4 -4,8 -7,13 -3,6 -6,12 -7,18 -1,7 -3,15 -5,24 -2,8 -3,16 -4,21 0,6 -1,12 -1,19l-62 0 0 -5c0,-17 1,-32 4,-46 3,-14 6,-25 8,-34 2,-10 7,-20 15,-31 8,-11 15,-20 22,-27 6,-7 17,-18 32,-33 1,-2 3,-3 3,-4 17,-16 28,-31 35,-44 6,-13 10,-28 10,-44 0,-30 -9,-54 -25,-71 -16,-18 -39,-26 -67,-26 -69,0 -106,41 -111,123 -21,0 -43,0 -64,0z"/>
  <circle class="fil0" cx="600" cy="827" r="39"/>
  <path class="fil0" d="M600 0c331,0 600,269 600,600 0,331 -269,600 -600,600 -331,0 -600,-269 -600,-600 0,-331 269,-600 600,-600zm0 47c305,0 553,248 553,553 0,305 -248,553 -553,553 -305,0 -553,-248 -553,-553 0,-305 248,-553 553,-553z"/>
 </g>
</svg>
