<?xml version="1.0" encoding="UTF-8"?>
<!DOCTYPE svg PUBLIC "-//W3C//DTD SVG 1.1//EN" "http://www.w3.org/Graphics/SVG/1.1/DTD/svg11.dtd">
<!-- Creator: CorelDRAW X7 -->
<svg xmlns="http://www.w3.org/2000/svg" xml:space="preserve" width="500px" height="500px" version="1.1" style="shape-rendering:geometricPrecision; text-rendering:geometricPrecision; image-rendering:optimizeQuality; fill-rule:evenodd; clip-rule:evenodd"
viewBox="0 0 500 500"
 xmlns:xlink="http://www.w3.org/1999/xlink">
 <defs>
  <style type="text/css">
   <![CDATA[
    .str0 {stroke:#CCCCCC;stroke-width:5.90553}
    .str1 {stroke:#7DA43E;stroke-width:17.7166}
    .fil40 {fill:none}
    .fil1 {fill:#FEFEFE}
    .fil15 {fill:#FEFEFE}
    .fil37 {fill:#EBECEC}
    .fil29 {fill:#D9DADA}
    .fil9 {fill:#898989}
    .fil23 {fill:#FFED00}
    .fil33 {fill:#F5B2B6}
    .fil22 {fill:#FCF6FA}
    .fil7 {fill:#6E3E1D}
    .fil5 {fill:#AD8C5E}
    .fil43 {fill:#C3C3C3}
    .fil28 {fill:#9E9E9E}
    .fil30 {fill:#616060}
    .fil10 {fill:#5C5C5C}
    .fil46 {fill:#455863}
    .fil44 {fill:#437497}
    .fil6 {fill:#323232}
    .fil8 {fill:#2F2F2F}
    .fil45 {fill:#378DCC}
    .fil0 {fill:#15639D}
    .fil27 {fill:#1E1D1F}
    .fil16 {fill:#0C3E7B}
    .fil36 {fill:#51506B}
    .fil35 {fill:#524558}
    .fil4 {fill:#6A3114}
    .fil24 {fill:#752900}
    .fil117 {fill:#7AA13B}
    .fil116 {fill:#7BA23B}
    .fil115 {fill:#7BA23C}
    .fil114 {fill:#7BA33C}
    .fil113 {fill:#7CA33C}
    .fil118 {fill:#7CA33D}
    .fil112 {fill:#7CA43C}
    .fil119 {fill:#7DA43E}
    .fil111 {fill:#7DA53C}
    .fil110 {fill:#7DA53D}
    .fil109 {fill:#7DA63D}
    .fil120 {fill:#7EA53F}
    .fil121 {fill:#7EA540}
    .fil108 {fill:#7EA63D}
    .fil107 {fill:#7EA73D}
    .fil122 {fill:#7FA640}
    .fil106 {fill:#7FA73D}
    .fil105 {fill:#7FA73E}
    .fil104 {fill:#7FA83E}
    .fil123 {fill:#80A741}
    .fil103 {fill:#80A83E}
    .fil102 {fill:#80A93E}
    .fil124 {fill:#81A842}
    .fil125 {fill:#81A843}
    .fil101 {fill:#81AA3E}
    .fil100 {fill:#81AA3F}
    .fil99 {fill:#81AB3F}
    .fil126 {fill:#82A943}
    .fil127 {fill:#82A944}
    .fil98 {fill:#82AB3F}
    .fil97 {fill:#82AC3F}
    .fil47 {fill:#82AC40}
    .fil128 {fill:#83AA44}
    .fil48 {fill:#83AD40}
    .fil204 {fill:#83AD41}
    .fil203 {fill:#83AD42}
    .fil49 {fill:#83AE41}
    .fil129 {fill:#84AB45}
    .fil130 {fill:#84AB46}
    .fil96 {fill:#84AE40}
    .fil50 {fill:#84AE41}
    .fil202 {fill:#84AE42}
    .fil201 {fill:#84AE43}
    .fil95 {fill:#84AF40}
    .fil51 {fill:#84AF41}
    .fil131 {fill:#85AC46}
    .fil132 {fill:#85AC47}
    .fil200 {fill:#85AE43}
    .fil52 {fill:#85AF41}
    .fil199 {fill:#85AF44}
    .fil53 {fill:#85B041}
    .fil54 {fill:#85B142}
    .fil133 {fill:#86AD47}
    .fil134 {fill:#86AD48}
    .fil198 {fill:#86AF44}
    .fil197 {fill:#86AF45}
    .fil94 {fill:#86B041}
    .fil196 {fill:#86B045}
    .fil93 {fill:#86B141}
    .fil55 {fill:#86B142}
    .fil56 {fill:#86B242}
    .fil135 {fill:#87AE48}
    .fil136 {fill:#87AE49}
    .fil195 {fill:#87B046}
    .fil194 {fill:#87B146}
    .fil57 {fill:#87B242}
    .fil58 {fill:#87B342}
    .fil59 {fill:#87B343}
    .fil137 {fill:#88AF49}
    .fil138 {fill:#88AF4A}
    .fil193 {fill:#88B147}
    .fil192 {fill:#88B248}
    .fil92 {fill:#88B342}
    .fil60 {fill:#88B343}
    .fil91 {fill:#88B442}
    .fil61 {fill:#88B443}
    .fil139 {fill:#89B04A}
    .fil140 {fill:#89B04B}
    .fil191 {fill:#89B248}
    .fil90 {fill:#89B443}
    .fil62 {fill:#89B543}
    .fil141 {fill:#8AB14B}
    .fil142 {fill:#8AB14C}
    .fil190 {fill:#8AB349}
    .fil189 {fill:#8AB34A}
    .fil89 {fill:#8AB643}
    .fil63 {fill:#8AB644}
    .fil64 {fill:#8AB744}
    .fil143 {fill:#8BB24C}
    .fil144 {fill:#8BB24D}
    .fil188 {fill:#8BB34A}
    .fil187 {fill:#8BB44B}
    .fil65 {fill:#8BB744}
    .fil66 {fill:#8BB844}
    .fil145 {fill:#8CB34D}
    .fil146 {fill:#8CB34E}
    .fil186 {fill:#8CB44B}
    .fil185 {fill:#8CB54C}
    .fil67 {fill:#8CB844}
    .fil88 {fill:#8CB944}
    .fil68 {fill:#8CB945}
    .fil69 {fill:#8CBA45}
    .fil147 {fill:#8DB44E}
    .fil148 {fill:#8DB44F}
    .fil184 {fill:#8DB54D}
    .fil183 {fill:#8DB64D}
    .fil87 {fill:#8DB945}
    .fil70 {fill:#8DBA45}
    .fil71 {fill:#8DBB45}
    .fil149 {fill:#8EB54F}
    .fil150 {fill:#8EB550}
    .fil182 {fill:#8EB64E}
    .fil181 {fill:#8EB74E}
    .fil86 {fill:#8EBB45}
    .fil72 {fill:#8EBB46}
    .fil73 {fill:#8EBC46}
    .fil151 {fill:#8FB650}
    .fil152 {fill:#8FB651}
    .fil180 {fill:#8FB74F}
    .fil179 {fill:#8FB750}
    .fil74 {fill:#8FBC46}
    .fil75 {fill:#8FBD46}
    .fil153 {fill:#90B752}
    .fil178 {fill:#90B850}
    .fil177 {fill:#90B851}
    .fil76 {fill:#90BE46}
    .fil77 {fill:#90BE47}
    .fil85 {fill:#90BF47}
    .fil154 {fill:#91B852}
    .fil155 {fill:#91B853}
    .fil176 {fill:#91B951}
    .fil175 {fill:#91B952}
    .fil78 {fill:#91BF47}
    .fil79 {fill:#91C047}
    .fil156 {fill:#92B953}
    .fil157 {fill:#92B954}
    .fil174 {fill:#92BA53}
    .fil80 {fill:#92C047}
    .fil81 {fill:#92C147}
    .fil82 {fill:#92C148}
    .fil2 {fill:#933C0A}
    .fil173 {fill:#93BA54}
    .fil158 {fill:#93BA55}
    .fil172 {fill:#93BB54}
    .fil83 {fill:#93C148}
    .fil84 {fill:#93C248}
    .fil171 {fill:#94BB55}
    .fil159 {fill:#94BB56}
    .fil170 {fill:#94BC55}
    .fil169 {fill:#94BC56}
    .fil160 {fill:#95BC56}
    .fil161 {fill:#95BC57}
    .fil168 {fill:#95BD57}
    .fil167 {fill:#96BD57}
    .fil162 {fill:#96BD58}
    .fil166 {fill:#96BE58}
    .fil163 {fill:#97BE59}
    .fil165 {fill:#98BF59}
    .fil164 {fill:#98BF5A}
    .fil34 {fill:#BAAEC2}
    .fil32 {fill:#DEA2C6}
    .fil31 {fill:#E1C0D1}
    .fil17 {fill:#FEA500}
    .fil20 {fill:#FEFEFE;fill-rule:nonzero}
    .fil19 {fill:#FEFEFE;fill-rule:nonzero}
    .fil18 {fill:#1F1B20;fill-rule:nonzero}
    .fil21 {fill:#CCCCCC;fill-opacity:0.301961}
    .fil11 {fill:url(#id23)}
    .fil41 {fill:url(#id24)}
    .fil42 {fill:url(#id25)}
    .fil26 {fill:url(#id26)}
    .fil3 {fill:url(#id27)}
    .fil38 {fill:url(#id28)}
    .fil13 {fill:url(#id29)}
    .fil25 {fill:url(#id30)}
    .fil39 {fill:url(#id31)}
    .fil12 {fill:url(#id32)}
    .fil14 {fill:url(#id33)}
    .fil205 {fill:url(#id34)}
   ]]>
  </style>
    <mask id="id0">
  <linearGradient id="id1" gradientUnits="userSpaceOnUse" x1="5350.48" y1="-356.556" x2="5365.59" y2="-356.556">
   <stop offset="0" style="stop-opacity:1; stop-color:white"/>
   <stop offset="0.278431" style="stop-opacity:0; stop-color:white"/>
   <stop offset="1" style="stop-opacity:0; stop-color:white"/>
  </linearGradient>
     <rect style="fill:url(#id1)" x="5349" y="-415" width="18.8847" height="117.324"/>
    </mask>
     <mask id="id2">
  <linearGradient id="id3" gradientUnits="userSpaceOnUse" x1="5052.81" y1="-192.889" x2="5076.89" y2="-236.023">
   <stop offset="0" style="stop-opacity:1; stop-color:white"/>
   <stop offset="1" style="stop-opacity:0; stop-color:white"/>
  </linearGradient>
      <rect style="fill:url(#id3)" x="5005" y="-256" width="119.503" height="82.1755"/>
     </mask>
     <mask id="id4">
  <linearGradient id="id5" gradientUnits="userSpaceOnUse" x1="5084.52" y1="-243.65" x2="5060.44" y2="-200.516">
   <stop offset="0" style="stop-opacity:1; stop-color:white"/>
   <stop offset="1" style="stop-opacity:0; stop-color:white"/>
  </linearGradient>
      <rect style="fill:url(#id5)" x="5013" y="-263" width="119.502" height="82.1743"/>
     </mask>
    <mask id="id6">
  <linearGradient id="id7" gradientUnits="userSpaceOnUse" x1="4363.42" y1="-81.4325" x2="4774.76" y2="-285.131">
   <stop offset="0" style="stop-opacity:1; stop-color:white"/>
   <stop offset="1" style="stop-opacity:0; stop-color:white"/>
  </linearGradient>
     <rect style="fill:url(#id7)" x="4260" y="-394" width="618" height="421"/>
    </mask>
    <mask id="id8">
  <linearGradient id="id9" gradientUnits="userSpaceOnUse" x1="5107.88" y1="-626.698" x2="5107.88" y2="-635.755">
   <stop offset="0" style="stop-opacity:1; stop-color:white"/>
   <stop offset="0.368627" style="stop-opacity:-4.52157; stop-color:white"/>
   <stop offset="1" style="stop-opacity:0; stop-color:white"/>
  </linearGradient>
     <rect style="fill:url(#id9)" x="5008" y="-636" width="199.675" height="10.063"/>
    </mask>
    <mask id="id10">
  <linearGradient id="id11" gradientUnits="userSpaceOnUse" x1="5008.05" y1="-740.813" x2="5122.71" y2="-740.813">
   <stop offset="0" style="stop-opacity:1; stop-color:white"/>
   <stop offset="0.431373" style="stop-opacity:-4.52157; stop-color:white"/>
   <stop offset="1" style="stop-opacity:0; stop-color:white"/>
  </linearGradient>
     <rect style="fill:url(#id11)" x="5008" y="-855" width="115" height="229"/>
    </mask>
   <mask id="id12">
  <linearGradient id="id13" gradientUnits="userSpaceOnUse" x1="-1726.21" y1="-1650.27" x2="-1726.21" y2="-1911.99">
   <stop offset="0" style="stop-opacity:1; stop-color:white"/>
   <stop offset="1" style="stop-opacity:0; stop-color:white"/>
  </linearGradient>
    <rect style="fill:url(#id13)" x="-2158" y="-2251" width="864" height="941"/>
   </mask>
   <mask id="id14">
  <linearGradient id="id15" gradientUnits="userSpaceOnUse" x1="-1738.48" y1="-1631.7" x2="-1712.63" y2="-1418.48">
   <stop offset="0" style="stop-opacity:0; stop-color:white"/>
   <stop offset="1" style="stop-opacity:1; stop-color:white"/>
  </linearGradient>
    <rect style="fill:url(#id15)" x="-2150" y="-1594" width="849" height="138"/>
   </mask>
   <mask id="id16">
  <linearGradient id="id17" gradientUnits="userSpaceOnUse" x1="-1735.24" y1="-1497.96" x2="-1716.58" y2="-1343.98">
   <stop offset="0" style="stop-opacity:0; stop-color:white"/>
   <stop offset="1" style="stop-opacity:1; stop-color:white"/>
  </linearGradient>
    <rect style="fill:url(#id17)" x="-2150" y="-1456" width="848.737" height="70.7258"/>
   </mask>
   <mask id="id18">
  <linearGradient id="id19" gradientUnits="userSpaceOnUse" x1="-1735.19" y1="-1430.5" x2="-1716.53" y2="-1276.52">
   <stop offset="0" style="stop-opacity:0; stop-color:white"/>
   <stop offset="1" style="stop-opacity:1; stop-color:white"/>
  </linearGradient>
    <rect style="fill:url(#id19)" x="-2150" y="-1389" width="848.737" height="70.7258"/>
   </mask>
   <mask id="id20">
  <linearGradient id="id21" gradientUnits="userSpaceOnUse" x1="-1726.21" y1="-2562.27" x2="-1726.21" y2="-2518.45">
   <stop offset="0" style="stop-opacity:1; stop-color:white"/>
   <stop offset="0.45098" style="stop-opacity:-11.0471; stop-color:white"/>
   <stop offset="1" style="stop-opacity:0; stop-color:white"/>
  </linearGradient>
    <rect style="fill:url(#id21)" x="-2094" y="-2562" width="736.439" height="43.8143"/>
   </mask>
    <clipPath id="id22">
     <path d="M500 250c0,138 -112,250 -250,250 -138,0 -250,-112 -250,-250 0,-138 112,-250 250,-250 138,0 250,112 250,250z"/>
    </clipPath>
  <linearGradient id="id23" gradientUnits="userSpaceOnUse" x1="5456.01" y1="-380.498" x2="5488.45" y2="-338.183">
   <stop offset="0" style="stop-opacity:1; stop-color:#C5C6C6"/>
   <stop offset="0.6" style="stop-opacity:1; stop-color:#E1E2E2"/>
   <stop offset="1" style="stop-opacity:1; stop-color:#FEFEFE"/>
  </linearGradient>
  <linearGradient id="id24" gradientUnits="userSpaceOnUse" x1="-1725.91" y1="-1385.61" x2="-1725.91" y2="-1456.34">
   <stop offset="0" style="stop-opacity:1; stop-color:silver"/>
   <stop offset="1" style="stop-opacity:1; stop-color:#FEFEFE"/>
  </linearGradient>
  <linearGradient id="id25" gradientUnits="userSpaceOnUse" xlink:href="#id24" x1="-1725.86" y1="-1318.15" x2="-1725.86" y2="-1388.87">
  </linearGradient>
  <linearGradient id="id26" gradientUnits="userSpaceOnUse" x1="4233.23" y1="-489.746" x2="4317.29" y2="-489.746">
   <stop offset="0" style="stop-opacity:1; stop-color:#3B332F"/>
   <stop offset="1" style="stop-opacity:1; stop-color:#893001"/>
  </linearGradient>
  <linearGradient id="id27" gradientUnits="userSpaceOnUse" x1="4905.56" y1="-757.795" x2="4676.28" y2="44.6836">
   <stop offset="0" style="stop-opacity:1; stop-color:#882F00"/>
   <stop offset="1" style="stop-opacity:1; stop-color:#9B4611"/>
  </linearGradient>
  <linearGradient id="id28" gradientUnits="userSpaceOnUse" xlink:href="#id24" x1="-1725.55" y1="-1456.33" x2="-1725.55" y2="-1593.85">
  </linearGradient>
  <linearGradient id="id29" gradientUnits="userSpaceOnUse" x1="4476.6" y1="-446.996" x2="5199.07" y2="-446.996">
   <stop offset="0" style="stop-opacity:1; stop-color:#C2E4F8"/>
   <stop offset="1" style="stop-opacity:1; stop-color:#134E9F"/>
  </linearGradient>
  <linearGradient id="id30" gradientUnits="userSpaceOnUse" xlink:href="#id27" x1="4241.38" y1="-709.154" x2="4977.85" y2="-709.154">
  </linearGradient>
  <linearGradient id="id31" gradientUnits="userSpaceOnUse" x1="-1726.21" y1="-2459.93" x2="-1726.21" y2="-2538.91">
   <stop offset="0" style="stop-opacity:1; stop-color:#666666"/>
   <stop offset="0.301961" style="stop-opacity:1; stop-color:#E5E6E6"/>
   <stop offset="0.490196" style="stop-opacity:1; stop-color:#9FA0A0"/>
   <stop offset="1" style="stop-opacity:1; stop-color:#E5E4E5"/>
  </linearGradient>
  <linearGradient id="id32" gradientUnits="userSpaceOnUse" x1="4837.88" y1="-115.68" x2="4837.88" y2="-592.358">
   <stop offset="0" style="stop-opacity:1; stop-color:#0E5FAF"/>
   <stop offset="0.501961" style="stop-opacity:1; stop-color:#0E5FAF"/>
   <stop offset="0.0117647" style="stop-opacity:1; stop-color:#0E5FAF"/>
   <stop offset="0.580392" style="stop-opacity:1; stop-color:#0F62B2"/>
   <stop offset="1" style="stop-opacity:1; stop-color:#0E5FAF"/>
  </linearGradient>
  <linearGradient id="id33" gradientUnits="userSpaceOnUse" xlink:href="#id29" x1="4476.67" y1="-365.091" x2="5199.1" y2="-365.091">
  </linearGradient>
  <radialGradient id="id34" gradientUnits="userSpaceOnUse" gradientTransform="matrix(2.64844E-014 0.999995 -0.999995 2.64844E-014 500 0)" cx="249.999" cy="250" r="100.082" fx="249.999" fy="250">
   <stop offset="0" style="stop-opacity:1; stop-color:#FEFEFE"/>
   <stop offset="0.85098" style="stop-opacity:1; stop-color:#FDFEFE"/>
   <stop offset="0.760784" style="stop-opacity:1; stop-color:#E7E7E7"/>
   <stop offset="1" style="stop-opacity:1; stop-color:#D0D1D1"/>
  </radialGradient>
 </defs>
 <g id="Слой_x0020_1">
  <metadata id="CorelCorpID_0Corel-Layer"/>
  <path class="fil0" d="M-4300 -631c331,0 600,269 600,600 0,332 -269,600 -600,600 -331,0 -600,-268 -600,-600 0,-331 269,-600 600,-600zm0 47c305,0 553,248 553,553 0,306 -248,553 -553,553 -305,0 -553,-247 -553,-553 0,-305 248,-553 553,-553z"/>
  <circle class="fil0" cx="-4300" cy="-31" r="567"/>
  <path class="fil1" d="M-4468 -129c0,-26 4,-50 11,-71 7,-22 18,-41 32,-58 14,-17 32,-30 55,-39 22,-10 48,-14 77,-14 49,0 88,13 117,40 29,26 44,62 44,107 0,27 -5,51 -15,71 -10,19 -25,39 -45,58 -4,4 -9,9 -16,15 -7,6 -12,11 -14,13 -3,3 -7,7 -12,12 -4,5 -8,10 -10,13 -2,3 -4,7 -7,13 -3,5 -6,11 -7,18 -1,6 -3,14 -5,23 -2,9 -3,16 -4,21 0,6 -1,12 -1,19l-62 0 0 -5c0,-17 1,-32 4,-46 3,-13 6,-25 8,-34 2,-10 7,-20 15,-31 8,-11 15,-20 22,-27 6,-6 17,-18 32,-33 1,-1 3,-3 3,-3 17,-17 28,-31 35,-45 6,-13 10,-27 10,-44 0,-30 -9,-53 -25,-71 -16,-17 -39,-26 -67,-26 -69,0 -106,41 -111,124 -21,0 -43,0 -64,0z"/>
  <circle class="fil1" cx="-4300" cy="197" r="39"/>
  <g id="_1201063104">
   <path class="fil2" d="M5333 -415l141 0c33,0 59,26 59,58l0 0c0,33 -26,59 -59,59l-141 0 0 -117z"/>
   <path class="fil3" d="M4233 -740l1083 0c18,0 33,15 33,33l0 701c0,18 -15,33 -33,33 -327,0 -653,0 -980,0 -53,0 -103,-20 -103,-98l0 -669z"/>
   <path class="fil4" d="M4321 -25l954 0c11,0 20,-10 20,-21l0 -619c0,-11 -9,-20 -20,-20l-297 0 0 -19 316 0c11,0 20,9 20,20 0,219 0,438 0,657 0,12 -9,21 -20,21 -324,0 -648,0 -973,0 -24,0 -41,-5 -59,-33 -1,-4 -2,-17 0,-23 13,25 32,35 59,37z"/>
   <rect class="fil5" transform="matrix(-0.000813419 0.695168 -0.695168 -0.000813419 5307.48 -580.385)" width="35.9375" height="9.37562"/>
   <rect class="fil5" transform="matrix(-0.000813419 0.695168 -0.695168 -0.000813419 5307.43 -536.741)" width="35.9375" height="9.37562"/>
   <rect class="fil5" transform="matrix(-0.000813419 0.695168 -0.695168 -0.000813419 5307.59 -495.05)" width="35.9375" height="9.37562"/>
   <rect class="fil5" transform="matrix(-0.000813419 0.695168 -0.695168 -0.000813419 5307.62 -453.473)" width="35.9375" height="9.37562"/>
   <rect class="fil5" transform="matrix(-0.000813419 0.695168 -0.695168 -0.000813419 5307.58 -411.938)" width="35.9375" height="9.37562"/>
   <rect class="fil5" transform="matrix(-0.000813419 0.695168 -0.695168 -0.000813419 5307.68 -370.925)" width="35.9375" height="9.37562"/>
   <rect class="fil5" transform="matrix(-0.000813419 0.695168 -0.695168 -0.000813419 5307.83 -329.234)" width="35.9375" height="9.37562"/>
   <rect class="fil5" transform="matrix(-0.000813419 0.695168 -0.695168 -0.000813419 5307.87 -287.657)" width="35.9375" height="9.37562"/>
   <rect class="fil5" transform="matrix(-0.000813419 0.695168 -0.695168 -0.000813419 5307.82 -246.122)" width="35.9375" height="9.37562"/>
   <rect class="fil5" transform="matrix(-0.000813419 0.695168 -0.695168 -0.000813419 5307.77 -202.479)" width="35.9375" height="9.37562"/>
   <rect class="fil5" transform="matrix(-0.000813419 0.695168 -0.695168 -0.000813419 5307.93 -160.787)" width="35.9375" height="9.37562"/>
   <rect class="fil5" transform="matrix(-0.000813419 0.695168 -0.695168 -0.000813419 5307.97 -119.211)" width="35.9375" height="9.37562"/>
   <rect class="fil5" transform="matrix(-0.000813419 0.695168 -0.695168 -0.000813419 5307.92 -77.6751)" width="35.9375" height="9.37562"/>
   <rect class="fil5" transform="matrix(-0.000813419 0.695168 -0.695168 -0.000813419 5307.38 -664.959)" width="35.9375" height="9.37562"/>
   <rect class="fil5" transform="matrix(-0.000813419 0.695168 -0.695168 -0.000813419 5307.53 -623.268)" width="35.9375" height="9.37562"/>
   <rect class="fil5" transform="matrix(-0.695168 -0.000813419 0.000813419 -0.695168 5197.75 -691.845)" width="35.9375" height="9.37562"/>
   <rect class="fil5" transform="matrix(-0.695168 -0.000813419 0.000813419 -0.695168 5154.11 -691.897)" width="35.9375" height="9.37562"/>
   <rect class="fil5" transform="matrix(-0.695168 -0.000813419 0.000813419 -0.695168 5112.42 -691.741)" width="35.9375" height="9.37562"/>
   <rect class="fil5" transform="matrix(-0.695168 -0.000813419 0.000813419 -0.695168 5070.84 -691.702)" width="35.9375" height="9.37562"/>
   <rect class="fil5" transform="matrix(-0.695168 -0.000813419 0.000813419 -0.695168 5282.33 -691.949)" width="35.9375" height="9.37562"/>
   <rect class="fil5" transform="matrix(-0.695168 -0.000813419 0.000813419 -0.695168 5240.64 -691.792)" width="35.9375" height="9.37562"/>
   <path class="fil5" d="M5302 -677c-2,-8 -5,-11 -10,-14 2,-1 2,-3 4,-5 6,2 13,11 13,17 -2,1 -5,1 -7,2z"/>
   <path class="fil5" d="M5295 -23c6,-5 6,-9 6,-15 2,1 5,0 7,1 1,6 -3,16 -9,19 -1,-1 -3,-3 -4,-5z"/>
   <rect class="fil5" transform="matrix(-0.695168 -0.000813419 0.000813419 -0.695168 5282.33 -12.2672)" width="35.9375" height="9.37562"/>
   <rect class="fil5" transform="matrix(-0.695168 -0.000813419 0.000813419 -0.695168 5155.54 -12.1808)" width="35.9375" height="9.37562"/>
   <rect class="fil5" transform="matrix(-0.695168 -0.000813419 0.000813419 -0.695168 5028.63 -12.0379)" width="35.9375" height="9.37562"/>
   <rect class="fil5" transform="matrix(-0.695168 -0.000813419 0.000813419 -0.695168 4987.1 -12.0863)" width="35.9375" height="9.37562"/>
   <rect class="fil5" transform="matrix(-0.695168 -0.000813419 0.000813419 -0.695168 4946.08 -11.9865)" width="35.9375" height="9.37562"/>
   <rect class="fil5" transform="matrix(-0.695168 -0.000813419 0.000813419 -0.695168 4904.39 -11.8302)" width="35.9375" height="9.37562"/>
   <rect class="fil5" transform="matrix(-0.695168 -0.000813419 0.000813419 -0.695168 4862.82 -11.7919)" width="35.9375" height="9.37562"/>
   <rect class="fil5" transform="matrix(-0.695168 -0.000813419 0.000813419 -0.695168 4821.28 -11.8403)" width="35.9375" height="9.37562"/>
   <rect class="fil5" transform="matrix(-0.695168 -0.000813419 0.000813419 -0.695168 4777.64 -11.8921)" width="35.9375" height="9.37562"/>
   <rect class="fil5" transform="matrix(-0.695168 -0.000813419 0.000813419 -0.695168 4735.95 -11.7357)" width="35.9375" height="9.37562"/>
   <rect class="fil5" transform="matrix(-0.695168 -0.000813419 0.000813419 -0.695168 4694.37 -11.6975)" width="35.9375" height="9.37562"/>
   <rect class="fil5" transform="matrix(-0.695168 -0.000813419 0.000813419 -0.695168 4652.83 -11.7458)" width="35.9375" height="9.37562"/>
   <rect class="fil5" transform="matrix(-0.695168 -0.000813419 0.000813419 -0.695168 5240.12 -12.2843)" width="35.9375" height="9.37562"/>
   <rect class="fil5" transform="matrix(-0.695168 -0.000813419 0.000813419 -0.695168 5198.43 -12.128)" width="35.9375" height="9.37562"/>
   <rect class="fil5" transform="matrix(-0.695168 -0.000813419 0.000813419 -0.695168 4609.7 -11.7706)" width="35.9375" height="9.37562"/>
   <rect class="fil5" transform="matrix(-0.695168 -0.000813419 0.000813419 -0.695168 4568.01 -11.6143)" width="35.9375" height="9.37562"/>
   <rect class="fil5" transform="matrix(-0.695168 -0.000813419 0.000813419 -0.695168 4526.43 -11.576)" width="35.9375" height="9.37562"/>
   <rect class="fil5" transform="matrix(-0.695168 -0.000813419 0.000813419 -0.695168 4484.9 -11.6243)" width="35.9375" height="9.37562"/>
   <rect class="fil5" transform="matrix(-0.695168 -0.000813419 0.000813419 -0.695168 4441.26 -11.6761)" width="35.9375" height="9.37562"/>
   <rect class="fil5" transform="matrix(-0.695168 -0.000813419 0.000813419 -0.695168 4399.56 -11.5198)" width="35.9375" height="9.37562"/>
   <rect class="fil5" transform="matrix(-0.695168 -0.000813419 0.000813419 -0.695168 4357.99 -11.4815)" width="35.9375" height="9.37562"/>
   <path class="fil5" d="M4316 -12c-8,0 -19,-3 -25,-7 0,-3 0,-5 0,-7 8,5 16,7 25,8 0,2 0,4 0,6z"/>
   <path class="fil5" d="M4279 -27c-7,-5 -10,-10 -16,-18 1,-2 1,-3 2,-5 6,7 9,12 16,17 -1,2 -1,4 -2,6z"/>
   <polygon class="fil6" style="mask:url(#id0)" points="5349,-415 5367,-415 5367,-298 5349,-298 "/>
   <path class="fil7" d="M5349 -298c44,0 78,0 123,0 34,0 61,-26 61,-59 0,49 -20,75 -63,75l-121 0 0 -16z"/>
   <path class="fil8" d="M5235 -640l-227 0 0 27 227 0c7,0 14,-6 14,-13l0 0c0,-8 -7,-14 -14,-14z"/>
   <circle class="fil9" cx="5472" cy="-355" r="26"/>
   <path class="fil10" d="M5472 -367c6,0 11,5 11,11 0,6 -5,11 -11,11 -6,0 -11,-5 -11,-11 0,-6 5,-11 11,-11z"/>
   <path class="fil11" d="M5472 -386c15,0 27,12 27,27 0,14 -12,26 -27,26 -14,0 -26,-12 -26,-26 0,-15 12,-27 26,-27zm0 16c6,0 11,5 11,11 0,6 -5,11 -11,11 -6,0 -11,-5 -11,-11 0,-6 5,-11 11,-11z"/>
   <rect class="fil5" transform="matrix(-0.695168 -0.000813419 0.000813419 -0.695168 5111.9 -12.2326)" width="35.9375" height="9.37562"/>
   <rect class="fil5" transform="matrix(-0.695168 -0.000813419 0.000813419 -0.695168 5070.21 -12.0762)" width="35.9375" height="9.37562"/>
   <path class="fil5" d="M4244 -40c-8,-9 -8,-11 -10,-14 0,-2 0,-5 0,-8 2,6 5,10 10,15 0,3 0,5 0,7z"/>
   <g>
    <path class="fil12" d="M4522 -592l631 0c25,0 46,20 46,45l0 385c0,25 -20,46 -46,46l-630 0c-26,0 -46,-20 -46,-45l0 -385c0,-25 20,-46 45,-46z"/>
    <path class="fil13" d="M4477 -445c83,-56 425,-162 722,38 0,15 0,12 0,26 -214,-133 -550,-99 -722,10 0,-14 0,-59 0,-74z"/>
    <path class="fil14" d="M4477 -354c83,-56 405,-186 722,-11 0,14 0,8 0,23 -260,-123 -544,-54 -722,65 0,-15 0,-62 0,-77z"/>
    <path class="fil15" d="M4981 -540l157 0c4,0 8,3 8,8l0 109c0,4 -4,8 -8,8l-157 0c-4,0 -8,-3 -8,-8l0 -109c0,-4 4,-8 8,-8z"/>
    <path class="fil16" d="M4987 -531l145 0c3,0 6,2 6,6l0 21 -157 0 0 -21c0,-4 3,-6 6,-6z"/>
    <path class="fil17" d="M5132 -424l-145 1c-3,0 -6,-3 -6,-7l0 -21 157 0 0 21c0,4 -3,6 -6,6z"/>
    <path class="fil16" d="M5105 -489l3 0c5,0 9,1 9,8 0,7 -3,15 -13,15l-3 0 4 -23zm2 -5l-9 0 -5 33 10 0c15,0 21,-10 21,-20 0,-10 -8,-13 -17,-13z"/>
    <path class="fil16" d="M5046 -468l1 7 7 0 -6 -32 -8 0 -17 32 7 0 4 -7 12 0zm-1 -5l-9 0 7 -16 2 16z"/>
    <path class="fil16" d="M5089 -485c0,-6 -5,-9 -13,-9l-11 0 -5 33 7 0 2 -13 4 0 6 13 8 0 -7 -14c7,-2 9,-6 9,-10zm-20 7l2 -11 4 0c4,0 6,1 6,4 0,3 -1,7 -7,7l-5 0z"/>
    <path class="fil16" d="M5015 -494c-13,0 -18,12 -18,20 0,9 5,14 13,14 5,0 9,-2 12,-4l-3 -4c-2,2 -5,3 -8,3 -4,0 -7,-2 -7,-8 0,-7 3,-16 11,-16 3,0 5,0 7,2l3 -4c-2,-2 -5,-3 -10,-3z"/>
    <polygon class="fil18" points="4536,-329 4544,-329 4544,-291 4540,-291 4540,-325 4534,-325 "/>
    <path id="1" class="fil18" d="M4565 -317l-3 0c0,-4 1,-7 4,-9 2,-3 5,-4 8,-4 4,0 7,1 9,3 2,3 3,5 3,8 0,2 -1,4 -2,6 -1,2 -3,5 -6,8l-9 10 17 0 0 4 -25 0 14 -16c3,-3 5,-5 6,-7 1,-1 1,-3 1,-5 0,-2 -1,-4 -2,-5 -2,-2 -4,-2 -6,-2 -2,0 -4,0 -6,2 -1,2 -2,4 -3,7z"/>
    <path id="2" class="fil18" d="M4599 -320l-4 0c1,-3 2,-6 4,-7 2,-2 4,-3 7,-3 2,0 4,1 6,1 1,1 3,3 3,4 1,2 2,3 2,5 0,3 -2,6 -5,7 2,1 3,2 5,4 1,2 2,4 2,6 0,2 -1,5 -2,6 -1,2 -2,4 -4,5 -2,1 -4,2 -7,2 -3,0 -6,-1 -8,-3 -2,-2 -3,-5 -4,-9l4 0c0,3 1,5 2,6 2,1 4,2 6,2 3,0 5,-1 7,-3 1,-1 2,-3 2,-5 0,-2 0,-3 -1,-4 -1,-2 -2,-3 -3,-3 -2,-1 -4,-1 -7,-2l0 -3c2,0 4,0 5,-1 1,0 2,-1 3,-2 1,-1 1,-2 1,-3 0,-2 -1,-3 -2,-4 -1,-2 -3,-2 -5,-2 -1,0 -3,0 -4,1 -1,1 -2,3 -3,5z"/>
    <path id="3" class="fil18" d="M4647 -330l1 0 0 26 4 0 0 4 -4 0 0 9 -4 0 0 -9 -18 0 21 -30zm-3 26l0 -15 -11 15 11 0z"/>
    <path class="fil18" d="M4824 -247c0,-4 1,-6 1,-8 1,-2 2,-3 4,-4 1,-1 2,-2 4,-2 2,0 3,1 5,2 1,1 2,2 3,4 1,2 1,5 1,8 0,3 0,6 -1,7 -1,2 -2,4 -3,5 -2,1 -3,1 -5,1 -2,0 -3,0 -4,-1 -2,-1 -3,-2 -3,-4 -1,-2 -2,-5 -2,-8zm3 0c0,3 0,5 1,6 0,2 1,3 2,4 1,1 2,1 3,1 1,0 2,0 3,-1 1,-1 2,-2 3,-4 0,-1 1,-4 1,-6 0,-3 -1,-5 -1,-7 -1,-1 -2,-2 -3,-3 -1,-1 -2,-1 -3,-1 -1,0 -2,0 -3,1 -1,1 -2,2 -2,3 -1,2 -1,4 -1,7z"/>
    <path id="1" class="fil18" d="M4863 -260l0 2 -9 0 -1 7c1,0 2,0 3,0 2,0 4,1 6,2 1,2 2,4 2,6 0,2 -1,3 -1,5 -1,1 -2,2 -4,3 -1,1 -2,1 -4,1 -2,0 -4,0 -5,-2 -2,-1 -3,-3 -3,-5l3 0c0,1 0,2 1,3 0,0 1,1 2,1 0,1 1,1 2,1 2,0 3,-1 4,-2 2,-1 2,-3 2,-5 0,-2 0,-3 -1,-4 -2,-1 -3,-2 -5,-2 -1,0 -3,1 -5,2l2 -13 11 0z"/>
    <polygon id="2" class="fil18" points="4882,-261 4872,-231 4869,-231 4880,-261 "/>
    <path id="3" class="fil18" d="M4890 -252l-2 0c0,-3 1,-5 2,-6 2,-2 4,-3 6,-3 3,0 4,1 6,3 1,1 2,3 2,5 0,1 0,3 -1,4 -1,1 -2,3 -4,5l-6 7 12 0 0 3 -18 0 10 -11c2,-2 3,-4 4,-5 0,-1 1,-2 1,-3 0,-1 -1,-3 -2,-4 -1,-1 -2,-1 -4,-1 -2,0 -3,0 -4,1 -1,1 -2,3 -2,5z"/>
    <path id="4" class="fil18" d="M4909 -247c0,-4 1,-6 2,-8 0,-2 1,-3 3,-4 1,-1 2,-2 4,-2 2,0 3,1 5,2 1,1 2,2 3,4 1,2 1,4 1,8 0,3 0,6 -1,7 -1,2 -2,4 -3,5 -2,1 -3,1 -5,1 -2,0 -3,0 -4,-1 -2,-1 -3,-3 -3,-4 -1,-2 -2,-5 -2,-8zm3 0c0,3 0,5 1,6 0,2 1,3 2,4 1,1 2,1 3,1 1,0 2,0 3,-1 1,-1 2,-2 3,-4 0,-1 1,-4 1,-6 0,-3 -1,-5 -1,-7 -1,-1 -2,-2 -3,-3 -1,-1 -2,-1 -3,-1 -1,0 -2,0 -3,1 -1,1 -2,2 -2,3 -1,2 -1,4 -1,7z"/>
    <path class="fil19" d="M4824 -249c0,-3 1,-6 1,-8 1,-1 2,-3 4,-4 1,-1 2,-1 4,-1 2,0 3,0 5,1 1,1 2,3 3,5 1,1 1,4 1,7 0,3 0,6 -1,8 -1,2 -2,3 -3,4 -2,1 -3,2 -5,2 -2,0 -3,-1 -4,-2 -2,-1 -3,-2 -3,-4 -1,-2 -2,-4 -2,-8zm3 0c0,3 0,5 1,7 0,1 1,2 2,3 1,1 2,1 3,1 1,0 2,0 3,-1 1,0 2,-2 3,-3 0,-2 1,-4 1,-7 0,-2 -1,-4 -1,-6 -1,-2 -2,-3 -3,-4 -1,0 -2,-1 -3,-1 -1,0 -2,1 -3,1 -1,1 -2,2 -2,4 -1,1 -1,3 -1,6z"/>
    <path id="1" class="fil19" d="M4863 -262l0 3 -9 0 -1 7c1,-1 2,-1 3,-1 2,0 4,1 6,3 1,1 2,3 2,6 0,1 -1,3 -1,4 -1,2 -2,3 -4,4 -1,0 -2,1 -4,1 -2,0 -4,-1 -5,-2 -2,-1 -3,-3 -3,-5l3 0c0,1 0,2 1,2 0,1 1,1 2,2 0,0 1,0 2,0 2,0 3,0 4,-2 2,-1 2,-2 2,-4 0,-2 0,-4 -1,-5 -2,-1 -3,-1 -5,-1 -1,0 -3,0 -5,1l2 -13 11 0z"/>
    <polygon id="2" class="fil19" points="4882,-262 4872,-232 4869,-232 4880,-262 "/>
    <path id="3" class="fil19" d="M4890 -254l-2 0c0,-2 1,-4 2,-6 2,-1 4,-2 6,-2 3,0 4,0 6,2 1,2 2,3 2,5 0,2 0,3 -1,5 -1,1 -2,3 -4,5l-6 7 12 0 0 2 -18 0 10 -11c2,-2 3,-3 4,-4 0,-1 1,-2 1,-4 0,-1 -1,-2 -2,-3 -1,-1 -2,-2 -4,-2 -2,0 -3,1 -4,2 -1,1 -2,2 -2,4z"/>
    <path id="4" class="fil19" d="M4909 -249c0,-3 1,-6 2,-8 0,-2 1,-3 3,-4 1,-1 2,-1 4,-1 2,0 3,0 5,1 1,1 2,3 3,4 1,2 1,5 1,8 0,3 0,6 -1,8 -1,2 -2,3 -3,4 -2,1 -3,2 -5,2 -2,0 -3,-1 -4,-2 -2,-1 -3,-2 -3,-4 -1,-2 -2,-4 -2,-8zm3 0c0,3 0,5 1,7 0,1 1,2 2,3 1,1 2,1 3,1 1,0 2,0 3,-1 1,-1 2,-2 3,-3 0,-2 1,-4 1,-7 0,-2 -1,-4 -1,-6 -1,-2 -2,-3 -3,-4 -1,0 -2,-1 -3,-1 -1,0 -2,1 -3,1 -1,1 -2,2 -2,4 -1,1 -1,3 -1,6z"/>
    <path class="fil18" d="M4557 -175l-2 -25 -4 0 -5 18 -5 -18 -5 0 -2 25 3 0 1 -11c0,-4 1,-8 1,-11l5 19 3 0 6 -19c0,2 0,7 1,11l0 11 3 0z"/>
    <polygon id="1" class="fil18" points="4570,-175 4569,-200 4566,-200 4566,-175 "/>
    <path id="2" class="fil18" d="M4585 -200c-4,0 -7,2 -7,6 0,4 2,6 7,7 4,1 5,3 5,5 0,3 -2,5 -5,5 -3,0 -5,-1 -7,-3l-1 2c2,2 4,3 8,3 5,0 8,-3 8,-7 0,-5 -3,-6 -7,-7 -4,-2 -5,-3 -5,-5 0,-2 2,-4 4,-4 2,0 4,1 6,3l2 -2c-2,-2 -4,-3 -8,-3z"/>
    <polygon id="3" class="fil18" points="4615,-197 4615,-200 4598,-200 4598,-197 4605,-197 4605,-175 4608,-175 4608,-197 "/>
    <polygon id="4" class="fil18" points="4634,-197 4635,-200 4622,-200 4622,-175 4635,-175 4635,-178 4625,-178 4625,-187 4633,-187 4633,-189 4625,-189 4625,-197 "/>
    <path id="5" class="fil18" d="M4650 -186l6 11 4 0 -7 -11c4,-1 5,-3 5,-7 0,-5 -3,-7 -9,-7l-6 0 0 25 3 0 0 -11 4 0zm0 -2l-4 0 0 -9 3 0c4,0 6,1 6,4 0,3 -2,5 -5,5z"/>
    <path id="6" class="fil18" d="M4683 -200c-6,0 -11,4 -11,12 0,9 5,13 11,13 3,0 5,-1 7,-3l-2 -2c-1,2 -3,3 -5,3 -4,0 -7,-3 -7,-11 0,-7 3,-10 7,-10 2,0 3,1 5,2l1 -2c-2,-1 -3,-2 -6,-2z"/>
    <path id="7" class="fil18" d="M4708 -182l2 7 3 0 -8 -25 -4 0 -8 25 3 0 2 -7 10 0zm-1 -2l-8 0 4 -13 4 13z"/>
    <path id="8" class="fil18" d="M4726 -186l6 11 4 0 -7 -11c4,-1 6,-4 6,-7 0,-5 -3,-7 -9,-7l-7 0 0 25 3 0 0 -11 4 0zm0 -2l-4 0 0 -9 3 0c5,0 6,1 6,4 0,3 -2,5 -5,5z"/>
    <path id="9" class="fil18" d="M4748 -200l-5 0 0 25 6 0c5,0 11,-3 11,-13 0,-10 -6,-12 -12,-12zm-2 3l3 0c4,0 8,1 8,9 0,8 -4,10 -8,10l-3 0 0 -19z"/>
    <polygon id="10" class="fil18" points="4782,-187 4782,-175 4785,-175 4785,-200 4782,-200 4782,-190 4772,-190 4772,-200 4768,-200 4768,-175 4772,-175 4772,-187 "/>
    <path id="11" class="fil18" d="M4804 -200c-6,0 -10,4 -10,12 0,9 4,13 10,13 6,0 10,-5 10,-13 0,-8 -4,-12 -10,-12zm0 2c4,0 7,3 7,10 0,8 -3,11 -7,11 -4,0 -7,-3 -7,-11 0,-7 3,-10 7,-10z"/>
    <polygon id="12" class="fil18" points="4825,-178 4825,-200 4822,-200 4822,-175 4835,-175 4836,-178 "/>
    <path id="13" class="fil18" d="M4847 -200l-5 0 0 25 6 0c5,0 12,-3 12,-13 0,-10 -6,-12 -13,-12zm-2 3l3 -1c4,0 8,2 8,10 0,8 -4,10 -8,10l-3 0 0 -19z"/>
    <polygon id="14" class="fil18" points="4880,-198 4881,-200 4868,-200 4868,-175 4881,-175 4881,-178 4871,-178 4871,-187 4879,-187 4879,-189 4871,-189 4871,-198 "/>
    <path id="15" class="fil18" d="M4896 -186l6 11 4 0 -7 -12c4,-1 6,-3 6,-6 0,-5 -4,-7 -10,-7l-6 0 0 25 3 0 0 -11 4 0zm0 -2l-4 0 0 -10 3 0c5,0 6,2 6,5 0,3 -2,5 -5,5z"/>
    <path class="fil20" d="M4558 -177l-3 -24 -4 0 -5 18 -5 -18 -5 0 -2 24 3 0 1 -11c0,-4 1,-8 1,-10l5 18 3 0 6 -18c0,2 0,6 1,10l1 11 3 0z"/>
    <polygon id="1" class="fil20" points="4570,-177 4570,-201 4566,-201 4566,-177 "/>
    <path id="2" class="fil20" d="M4585 -202c-4,0 -7,3 -7,6 0,4 2,6 7,8 4,1 5,2 5,4 0,3 -2,5 -5,5 -3,0 -5,-1 -7,-3l-1 2c2,2 4,4 8,4 5,0 9,-3 9,-8 0,-4 -4,-6 -8,-7 -4,-1 -5,-2 -5,-5 0,-2 2,-3 4,-3 2,0 4,0 6,2l2 -2c-2,-2 -4,-3 -8,-3z"/>
    <polygon id="3" class="fil20" points="4615,-199 4615,-201 4598,-201 4598,-199 4605,-199 4605,-177 4608,-177 4608,-199 "/>
    <polygon id="4" class="fil20" points="4634,-199 4635,-201 4622,-201 4622,-177 4635,-177 4635,-179 4625,-179 4625,-188 4633,-188 4633,-191 4625,-191 4625,-199 "/>
    <path id="5" class="fil20" d="M4650 -187l6 10 4 0 -7 -11c4,-1 5,-3 5,-7 0,-4 -3,-6 -9,-6l-6 0 0 24 3 0 0 -10 4 0zm0 -3l-4 0 0 -9 3 0c4,0 6,1 6,4 0,4 -2,5 -5,5z"/>
    <path id="6" class="fil20" d="M4683 -202c-6,0 -11,4 -11,13 0,8 5,13 11,13 3,0 5,-2 7,-3l-2 -2c-1,1 -3,2 -5,2 -4,0 -7,-3 -7,-10 0,-8 3,-10 7,-10 2,0 3,0 5,1l1 -2c-2,-1 -3,-2 -6,-2z"/>
    <path id="7" class="fil20" d="M4708 -183l2 6 3 0 -8 -25 -4 0 -8 25 3 0 2 -6 10 0zm-1 -3l-8 0 4 -13 4 13z"/>
    <path id="8" class="fil20" d="M4726 -188l6 11 4 0 -7 -11c4,-1 6,-3 6,-7 0,-4 -3,-7 -9,-7l-7 0 0 25 3 0 0 -11 4 0zm0 -2l-4 0 0 -9 4 0c4,0 6,1 6,4 0,4 -3,5 -6,5z"/>
    <path id="9" class="fil20" d="M4748 -202l-5 0 0 25 6 0c5,0 11,-2 11,-12 0,-11 -6,-13 -12,-13zm-2 3l3 0c4,0 8,1 8,10 0,8 -4,10 -8,10l-3 0 0 -20z"/>
    <polygon id="10" class="fil20" points="4782,-189 4782,-177 4785,-177 4785,-202 4782,-202 4782,-191 4772,-191 4772,-202 4768,-202 4769,-177 4772,-177 4772,-189 "/>
    <path id="11" class="fil20" d="M4804 -202c-6,0 -10,5 -10,13 0,8 4,12 10,12 6,0 10,-4 10,-12 0,-9 -4,-13 -10,-13zm0 3c4,0 7,3 7,10 0,7 -3,10 -7,10 -4,0 -7,-3 -7,-10 0,-7 3,-10 7,-10z"/>
    <polygon id="12" class="fil20" points="4825,-180 4825,-202 4822,-202 4822,-177 4835,-177 4836,-180 "/>
    <path id="13" class="fil20" d="M4847 -202l-5 0 0 25 6 0c5,0 12,-2 12,-12 0,-11 -6,-13 -13,-13zm-2 3l3 0c4,0 8,1 8,10 0,8 -4,10 -8,10l-3 0 0 -20z"/>
    <polygon id="14" class="fil20" points="4880,-199 4881,-202 4868,-202 4868,-177 4881,-177 4881,-180 4871,-180 4871,-188 4879,-188 4879,-191 4871,-191 4871,-199 "/>
    <path id="15" class="fil20" d="M4896 -188l6 11 4 0 -7 -11c4,-1 6,-3 6,-7 0,-4 -4,-7 -10,-7l-6 0 0 25 3 0 0 -11 4 0zm0 -2l-4 0 0 -9 3 0c5,0 6,1 6,4 0,4 -2,5 -5,5z"/>
    <path class="fil21" d="M5013 -269l112 0c7,0 14,6 14,13l0 75c0,8 -7,14 -14,14l-112 0c-8,0 -14,-6 -14,-14l0 -75c0,-7 6,-13 14,-13z"/>
    <rect class="fil22" x="5005" y="-263" width="127.13" height="89.8021" rx="8" ry="8"/>
    <path class="fil23" style="mask:url(#id2)" d="M5125 -173l-112 0c-4,0 -8,-4 -8,-8 0,-25 0,-50 0,-75l120 83z"/>
    <path class="fil23" style="mask:url(#id4)" d="M5013 -263l112 0c4,0 7,3 7,7 0,25 0,50 0,75l-119 -82z"/>
    <polygon class="fil19" points="4536,-327 4544,-327 4544,-290 4540,-290 4540,-324 4534,-323 "/>
    <path id="1" class="fil19" d="M4565 -315l-3 0c0,-4 1,-7 4,-10 2,-2 5,-3 8,-3 4,0 7,1 9,3 2,2 3,5 3,8 0,2 -1,4 -2,6 -1,2 -3,5 -6,8l-9 10 17 0 0 3 -25 0 14 -15c3,-3 5,-6 6,-7 1,-2 1,-3 1,-5 0,-2 -1,-4 -2,-5 -2,-2 -4,-3 -6,-3 -2,0 -4,1 -6,3 -1,1 -2,4 -3,7z"/>
    <path id="2" class="fil19" d="M4599 -318l-4 0c1,-4 2,-6 4,-8 2,-1 4,-2 7,-2 2,0 4,0 6,1 1,1 3,2 3,4 1,1 2,3 2,5 0,3 -2,5 -5,7 2,1 3,2 4,3 2,2 3,5 3,7 0,2 -1,4 -2,6 -1,2 -2,4 -4,5 -2,1 -4,1 -7,1 -3,0 -6,-1 -8,-3 -2,-1 -4,-4 -4,-8l3 0c1,3 2,4 3,6 2,1 4,2 6,2 3,0 5,-1 7,-3 1,-1 2,-3 2,-6 0,-1 0,-2 -1,-4 -1,-1 -2,-2 -3,-3 -2,0 -4,-1 -7,-1l0 -3c2,0 4,-1 5,-1 1,-1 2,-1 3,-2 1,-1 1,-2 1,-3 0,-2 -1,-4 -2,-5 -1,-1 -3,-1 -5,-1 -2,0 -3,0 -4,1 -1,1 -2,2 -3,5z"/>
    <path id="3" class="fil19" d="M4647 -328l1 0 0 26 4 0 0 4 -4 0 0 8 -4 0 0 -8 -18 0 21 -30zm-3 26l0 -16 -11 16 11 0z"/>
    <path class="fil18" d="M4717 -329l0 4 -13 0 -2 10c1,-1 3,-1 4,-1 3,0 6,1 9,3 2,3 3,6 3,9 0,3 -1,5 -2,7 -1,2 -3,4 -4,5 -2,1 -5,1 -7,1 -3,0 -6,0 -8,-2 -2,-2 -3,-5 -4,-8l4 0c0,2 1,3 2,4 0,1 1,2 2,2 2,1 3,1 4,1 2,0 5,-1 6,-3 2,-2 3,-4 3,-7 0,-2 -1,-4 -2,-6 -2,-2 -4,-2 -7,-2 -2,0 -5,0 -8,2l4 -19 16 0z"/>
    <path id="1" class="fil18" d="M4743 -330l3 2 -10 15c1,0 3,0 4,0 3,0 5,1 7,3 2,2 3,5 3,8 0,2 0,4 -1,6 -1,1 -2,3 -4,4 -2,1 -4,1 -6,1 -2,0 -4,0 -6,-1 -2,-1 -3,-2 -4,-4 -1,-2 -2,-4 -2,-6 0,-2 1,-3 1,-5 1,-2 2,-4 4,-6l11 -17zm-4 20c-2,0 -4,1 -6,2 -1,2 -2,4 -2,6 0,2 1,4 2,5 2,2 4,3 6,3 2,0 4,-1 5,-3 2,-1 3,-3 3,-5 0,-2 -1,-4 -3,-6 -1,-1 -3,-2 -5,-2z"/>
    <polygon id="2" class="fil18" points="4760,-329 4784,-329 4764,-291 4761,-292 4778,-326 4760,-326 "/>
    <path id="3" class="fil18" d="M4809 -312c3,1 4,3 6,4 1,2 1,4 1,6 0,3 -1,5 -3,7 -2,3 -5,4 -10,4 -4,0 -7,-1 -9,-3 -2,-3 -3,-5 -3,-8 0,-2 0,-4 1,-6 2,-1 3,-3 6,-4 -2,-1 -3,-2 -4,-4 -1,-1 -1,-3 -1,-4 0,-2 0,-3 1,-5 1,-2 2,-3 4,-4 2,-1 4,-1 6,-1 2,0 3,0 5,1 2,1 3,2 4,4 1,2 1,3 1,5 0,2 0,3 -1,4 -1,2 -2,3 -4,4zm-5 -14c-3,0 -4,0 -6,1 -1,2 -2,3 -2,5 0,1 1,3 3,4 1,2 3,2 5,2 1,0 2,0 3,-1 1,0 2,-1 3,-2 0,-1 1,-2 1,-3 0,-2 -1,-3 -2,-4 -1,-2 -3,-2 -5,-2zm0 16c-3,0 -5,1 -7,2 -2,2 -2,4 -2,6 0,1 0,3 1,4 0,1 1,2 3,3 1,1 3,1 4,1 3,0 5,-1 7,-3 2,-1 2,-3 2,-5 0,-2 0,-4 -2,-6 -2,-1 -4,-2 -6,-2z"/>
    <path class="fil18" d="M4865 -291l-3 -2 10 -15c-1,0 -2,1 -4,1 -3,0 -5,-1 -7,-4 -2,-2 -3,-4 -3,-8 0,-2 0,-4 1,-5 1,-2 3,-4 4,-5 2,-1 4,-1 6,-1 2,0 4,0 6,1 2,1 3,3 4,5 1,1 2,3 2,5 0,2 0,4 -1,5 -1,2 -2,4 -3,6l-12 17zm4 -20c2,0 4,0 6,-2 1,-2 2,-3 2,-6 0,-2 -1,-4 -2,-5 -2,-2 -4,-2 -6,-2 -2,0 -4,0 -5,2 -2,1 -3,3 -3,5 0,3 1,5 3,6 1,2 3,2 5,2z"/>
    <path id="1" class="fil18" d="M4889 -310c0,-5 1,-9 2,-12 1,-3 3,-5 5,-6 1,-1 4,-2 6,-2 2,0 5,1 7,2 2,1 3,3 4,6 1,3 2,7 2,12 0,4 0,8 -2,11 -1,3 -2,5 -4,6 -2,2 -4,2 -7,2 -2,0 -5,0 -6,-2 -2,-1 -4,-3 -5,-6 -1,-3 -2,-6 -2,-11zm4 0c0,4 0,7 1,9 1,2 2,4 4,5 1,1 3,2 4,2 2,0 3,-1 5,-2 1,-1 2,-2 3,-5 1,-2 2,-6 2,-9 0,-4 -1,-7 -2,-10 -1,-2 -2,-4 -3,-5 -2,-1 -3,-2 -5,-2 -1,0 -3,1 -5,2 -1,1 -2,3 -3,5 -1,2 -1,5 -1,10z"/>
    <polygon id="2" class="fil18" points="4930,-329 4937,-329 4937,-292 4934,-292 4934,-326 4928,-326 "/>
    <path id="3" class="fil18" d="M4959 -317l-4 0c1,-4 2,-7 4,-10 3,-2 5,-3 9,-3 3,0 6,1 8,3 2,2 4,5 4,8 0,2 -1,4 -2,6 -1,2 -3,4 -6,8l-9 10 17 0 0 3 -25 0 14 -15c3,-3 5,-6 6,-7 0,-2 1,-3 1,-5 0,-2 -1,-4 -3,-5 -1,-2 -3,-3 -5,-3 -3,0 -5,1 -6,3 -2,1 -3,4 -3,7z"/>
    <path class="fil19" d="M4717 -328l0 4 -14 0 -1 10c1,0 3,0 4,0 3,0 6,1 8,3 3,2 4,5 4,9 0,2 -1,5 -2,7 -1,2 -3,3 -5,4 -1,1 -4,2 -6,2 -3,0 -6,-1 -8,-3 -2,-2 -3,-4 -4,-7l4 0c0,1 1,2 2,3 0,1 1,2 2,3 1,0 3,0 4,0 2,0 5,-1 6,-2 2,-2 3,-5 3,-7 0,-3 -1,-5 -2,-7 -2,-1 -4,-2 -7,-2 -2,0 -5,1 -8,2l4 -19 16 0z"/>
    <path id="1" class="fil19" d="M4743 -329l3 2 -10 16c1,-1 2,-1 4,-1 3,0 5,1 7,3 2,3 3,5 3,8 0,3 0,4 -1,6 -1,2 -3,3 -4,4 -2,1 -4,2 -6,2 -2,0 -4,-1 -6,-2 -2,-1 -3,-2 -4,-4 -1,-2 -2,-3 -2,-6 0,-1 1,-3 1,-4 1,-2 2,-4 4,-7l11 -17zm-4 20c-2,0 -4,1 -6,3 -1,1 -2,3 -2,5 0,3 1,4 2,6 2,2 4,2 6,2 2,0 4,0 5,-2 2,-2 3,-3 3,-6 0,-2 -1,-4 -3,-5 -1,-2 -3,-3 -5,-3z"/>
    <polygon id="2" class="fil19" points="4760,-328 4784,-328 4764,-289 4761,-291 4778,-324 4760,-324 "/>
    <path id="3" class="fil19" d="M4809 -311c3,2 4,3 5,5 2,1 2,3 2,5 0,3 -1,6 -3,8 -2,3 -5,4 -10,4 -4,0 -7,-1 -9,-4 -2,-2 -3,-5 -3,-8 0,-2 0,-3 1,-5 2,-2 3,-3 6,-5 -2,-1 -3,-2 -4,-3 -1,-2 -1,-3 -1,-5 0,-1 0,-3 1,-5 1,-1 2,-2 4,-3 2,-1 4,-2 6,-2 2,0 3,1 5,2 2,1 3,2 4,3 1,2 1,4 1,5 0,2 0,4 -1,5 -1,1 -2,2 -4,3zm-6 -14c-2,0 -3,1 -5,2 -1,1 -2,3 -2,4 0,2 1,3 3,5 1,1 3,2 5,2 1,0 2,0 3,-1 1,-1 2,-2 3,-3 0,-1 1,-2 1,-3 0,-1 -1,-3 -2,-4 -1,-1 -3,-2 -6,-2zm1 16c-3,0 -5,1 -7,3 -2,1 -2,3 -2,6 0,1 0,2 1,4 0,1 1,2 3,2 1,1 3,1 4,1 3,0 5,0 7,-2 2,-2 2,-4 2,-6 0,-2 0,-4 -2,-5 -2,-2 -4,-3 -6,-3z"/>
    <path class="fil19" d="M4865 -289l-3 -2 10 -16c-1,1 -2,1 -4,1 -3,0 -5,-1 -7,-3 -2,-2 -3,-5 -3,-8 0,-2 0,-4 1,-6 1,-2 3,-3 4,-4 2,-1 4,-2 6,-2 2,0 4,1 6,2 2,1 3,2 4,4 1,2 2,4 2,6 0,1 -1,3 -1,5 -1,1 -2,3 -3,6l-12 17zm4 -20c2,0 4,-1 6,-2 1,-2 2,-4 2,-6 0,-2 -1,-4 -2,-6 -2,-1 -4,-2 -6,-2 -2,0 -4,1 -5,2 -2,2 -3,4 -3,6 0,2 1,4 3,6 1,1 3,2 5,2z"/>
    <path id="1" class="fil19" d="M4889 -309c0,-5 1,-9 2,-11 1,-3 3,-5 4,-7 2,-1 5,-2 7,-2 2,0 5,1 7,2 2,2 3,4 4,7 1,3 2,6 2,11 0,5 -1,9 -2,11 -1,3 -2,5 -4,7 -2,1 -5,2 -7,2 -2,0 -5,-1 -6,-2 -2,-2 -4,-4 -5,-6 -1,-3 -2,-7 -2,-12zm4 0c0,4 0,8 1,10 1,2 2,4 3,5 2,1 4,1 5,1 2,0 3,0 5,-1 1,-1 2,-3 3,-5 1,-3 2,-6 2,-10 0,-4 -1,-7 -2,-9 -1,-3 -2,-4 -3,-5 -2,-2 -3,-2 -5,-2 -2,0 -3,0 -5,2 -1,1 -2,2 -3,5 -1,2 -1,5 -1,9z"/>
    <polygon id="2" class="fil19" points="4930,-328 4937,-328 4937,-290 4934,-290 4934,-324 4928,-324 "/>
    <path id="3" class="fil19" d="M4959 -316l-4 0c1,-4 2,-7 4,-9 2,-2 5,-4 9,-4 3,0 6,1 8,4 2,2 3,5 3,8 0,2 0,4 -1,6 -1,1 -3,4 -6,7l-9 10 17 0 0 4 -25 0 14 -16c3,-3 5,-5 5,-7 1,-1 2,-3 2,-4 0,-2 -1,-4 -3,-6 -1,-1 -3,-2 -5,-2 -3,0 -5,1 -6,2 -2,2 -3,4 -3,7z"/>
    <path class="fil18" d="M5045 -330l0 3 -13 0 -2 11c2,-1 3,-1 4,-1 4,0 7,1 9,3 2,3 3,6 3,9 0,3 0,5 -2,7 -1,2 -2,4 -4,5 -2,1 -4,1 -7,1 -3,0 -6,-1 -8,-2 -2,-2 -3,-5 -3,-8l3 0c1,2 1,3 2,4 1,1 2,1 3,2 1,1 2,1 3,1 3,0 5,-1 7,-3 1,-2 2,-4 2,-7 0,-3 0,-5 -2,-6 -2,-2 -4,-2 -7,-2 -2,0 -4,0 -8,2l4 -19 16 0z"/>
    <path id="1" class="fil18" d="M5071 -331l3 2 -10 15c2,0 3,0 4,0 3,0 6,1 8,3 2,2 3,5 3,8 0,2 -1,4 -2,6 -1,1 -2,3 -4,4 -2,1 -4,1 -6,1 -2,0 -4,0 -6,-1 -1,-1 -3,-3 -4,-4 -1,-2 -1,-4 -1,-6 0,-2 0,-3 1,-5 0,-2 1,-4 3,-6l11 -17zm-4 20c-2,0 -4,1 -5,2 -2,2 -3,4 -3,6 0,2 1,4 3,5 1,2 3,3 5,3 2,0 4,-1 6,-3 1,-1 2,-3 2,-5 0,-2 -1,-4 -2,-6 -2,-1 -4,-2 -6,-2z"/>
    <polygon id="2" class="fil18" points="5088,-330 5112,-330 5092,-292 5089,-293 5106,-327 5088,-327 "/>
    <path id="3" class="fil18" d="M5137 -313c3,1 5,2 6,4 1,2 2,4 2,6 0,2 -1,5 -3,7 -3,3 -6,4 -10,4 -4,0 -8,-1 -10,-3 -2,-3 -3,-5 -3,-8 0,-2 1,-4 2,-6 1,-1 3,-3 5,-4 -1,-1 -3,-2 -4,-4 -1,-1 -1,-3 -1,-4 0,-2 0,-4 1,-5 1,-2 3,-3 4,-4 2,-1 4,-1 6,-1 2,0 4,0 5,1 2,1 3,2 4,4 1,1 2,3 2,5 0,1 -1,3 -2,4 0,2 -2,3 -4,4zm-5 -14c-2,0 -4,0 -5,1 -2,2 -2,3 -2,5 0,1 0,3 2,4 1,2 3,2 5,2 1,0 2,0 3,-1 2,0 2,-1 3,-2 1,-1 1,-2 1,-3 0,-2 -1,-3 -2,-5 -1,-1 -3,-1 -5,-1zm0 16c-3,0 -5,0 -6,2 -2,2 -3,4 -3,6 0,1 0,3 1,4 1,1 2,2 3,3 1,0 3,1 5,1 3,0 5,-1 6,-3 2,-1 3,-3 3,-5 0,-2 -1,-4 -3,-6 -1,-2 -4,-2 -6,-2z"/>
    <path class="fil19" d="M5045 -329l0 4 -13 0 -2 10c2,0 3,-1 4,-1 4,0 7,2 9,4 2,2 3,5 3,9 0,2 0,4 -2,6 -1,3 -2,4 -4,5 -2,1 -4,2 -7,2 -3,0 -6,-1 -8,-3 -2,-2 -3,-4 -3,-7l3 0c1,1 1,2 2,3 1,1 1,2 3,3 1,0 2,0 3,0 3,0 5,-1 7,-2 1,-2 2,-5 2,-7 0,-3 -1,-5 -2,-7 -2,-1 -4,-2 -7,-2 -2,0 -4,1 -8,2l4 -19 16 0z"/>
    <path id="1" class="fil19" d="M5071 -330l3 2 -10 16c2,-1 3,-1 4,-1 3,0 6,1 8,3 2,2 3,5 3,8 0,2 -1,4 -2,6 -1,2 -2,3 -4,4 -2,1 -4,2 -6,2 -2,0 -4,-1 -6,-2 -2,-1 -3,-2 -4,-4 -1,-2 -1,-4 -1,-6 0,-1 0,-3 0,-4 1,-2 2,-4 4,-7l11 -17zm-4 20c-2,0 -4,1 -5,3 -2,1 -3,3 -3,5 0,2 1,4 3,6 1,1 3,2 5,2 2,0 4,-1 6,-2 1,-2 2,-4 2,-6 0,-2 -1,-4 -2,-5 -2,-2 -4,-3 -6,-3z"/>
    <polygon id="2" class="fil19" points="5088,-329 5112,-329 5092,-290 5089,-292 5106,-325 5088,-325 "/>
    <path id="3" class="fil19" d="M5137 -312c3,2 5,3 6,5 1,1 1,3 2,5 0,3 -1,6 -3,8 -3,2 -6,4 -10,4 -4,0 -8,-1 -10,-4 -2,-2 -3,-5 -3,-8 0,-2 1,-4 2,-5 1,-2 3,-3 5,-5 -1,-1 -3,-2 -4,-3 -1,-2 -1,-3 -1,-5 0,-1 0,-3 1,-5 1,-1 3,-2 4,-3 2,-1 4,-2 6,-2 2,0 4,1 5,2 2,1 3,2 4,3 1,2 2,4 2,5 0,2 -1,3 -2,5 -1,1 -2,2 -4,3zm-5 -14c-2,0 -4,1 -5,2 -2,1 -2,3 -2,4 0,2 0,3 2,5 1,1 3,2 5,2 1,0 2,-1 3,-1 2,-1 2,-2 3,-3 1,-1 1,-2 1,-3 0,-1 -1,-3 -2,-4 -1,-1 -3,-2 -5,-2zm0 16c-3,0 -5,1 -7,3 -1,1 -2,3 -2,6 0,1 0,2 1,3 1,2 2,3 3,3 1,1 3,1 5,1 3,0 5,-1 6,-2 2,-2 3,-4 3,-6 0,-2 -1,-4 -3,-5 -2,-2 -4,-3 -6,-3z"/>
   </g>
   <path class="fil24" d="M4339 -477l921 0 0 389c0,14 -11,25 -25,25l-872 0c-13,0 -24,-11 -24,-25l0 -389zm103 48l705 0c14,0 25,11 25,25l0 224c0,14 -11,25 -25,25l-705 0c-13,0 -25,-11 -25,-25l0 -224c0,-14 12,-25 25,-25z"/>
   <path class="fil4" d="M4642 -117l545 0c11,0 20,-9 20,-20l0 -340 20 0 0 359c0,11 -10,21 -21,21l-564 0 0 -20z"/>
   <path class="fil4" d="M4955 -116l-545 0c-11,0 -20,-9 -20,-20l0 -10 -19 12 0 17c0,11 9,20 20,20l564 0 0 -19z"/>
   <rect class="fil5" transform="matrix(-0.695168 -0.000813419 0.000813419 -0.695168 5099.84 -103.907)" width="35.9375" height="9.37562"/>
   <rect class="fil5" transform="matrix(-0.695168 -0.000813419 0.000813419 -0.695168 5056.2 -103.959)" width="35.9375" height="9.37562"/>
   <rect class="fil5" transform="matrix(-0.695168 -0.000813419 0.000813419 -0.695168 5014.5 -103.803)" width="35.9375" height="9.37562"/>
   <rect class="fil5" transform="matrix(-0.695168 -0.000813419 0.000813419 -0.695168 4972.93 -103.764)" width="35.9375" height="9.37562"/>
   <rect class="fil5" transform="matrix(-0.695168 -0.000813419 0.000813419 -0.695168 4931.39 -103.813)" width="35.9375" height="9.37562"/>
   <rect class="fil5" transform="matrix(-0.695168 -0.000813419 0.000813419 -0.695168 4890.38 -103.713)" width="35.9375" height="9.37562"/>
   <rect class="fil5" transform="matrix(-0.695168 -0.000813419 0.000813419 -0.695168 4848.69 -103.557)" width="35.9375" height="9.37562"/>
   <rect class="fil5" transform="matrix(-0.695168 -0.000813419 0.000813419 -0.695168 4807.11 -103.518)" width="35.9375" height="9.37562"/>
   <rect class="fil5" transform="matrix(-0.695168 -0.000813419 0.000813419 -0.695168 4765.58 -103.567)" width="35.9375" height="9.37562"/>
   <rect class="fil5" transform="matrix(-0.695168 -0.000813419 0.000813419 -0.695168 4721.93 -103.619)" width="35.9375" height="9.37562"/>
   <rect class="fil5" transform="matrix(-0.695168 -0.000813419 0.000813419 -0.695168 4680.24 -103.462)" width="35.9375" height="9.37562"/>
   <rect class="fil5" transform="matrix(-0.695168 -0.000813419 0.000813419 -0.695168 4638.66 -103.424)" width="35.9375" height="9.37562"/>
   <rect class="fil5" transform="matrix(-0.695168 -0.000813419 0.000813419 -0.695168 4597.13 -103.472)" width="35.9375" height="9.37562"/>
   <rect class="fil5" transform="matrix(-0.695168 -0.000813419 0.000813419 -0.695168 5184.41 -104.011)" width="35.9375" height="9.37562"/>
   <rect class="fil5" transform="matrix(-0.695168 -0.000813419 0.000813419 -0.695168 5142.72 -103.854)" width="35.9375" height="9.37562"/>
   <path class="fil5" d="M5197 -110c7,-1 10,-4 13,-9 1,1 4,2 5,4 -2,5 -10,12 -17,12 -1,-2 -1,-4 -1,-7z"/>
   <rect class="fil5" transform="matrix(-0.56644 -0.000813419 0.000662794 -0.695168 4479.37 -104.062)" width="35.9375" height="9.37562"/>
   <rect class="fil5" transform="matrix(-0.695168 -0.000813419 0.000813419 -0.695168 4442.46 -104.11)" width="35.9375" height="9.37562"/>
   <path class="fil5" d="M4388 -117c5,5 9,6 15,6 -1,2 0,5 -1,7 -6,1 -16,-3 -19,-9 1,-1 3,-3 5,-4z"/>
   <rect class="fil5" transform="matrix(-0.529005 -0.000813419 0.000618991 -0.695168 4554.81 -103.985)" width="35.9375" height="9.37562"/>
   <rect class="fil5" transform="matrix(-0.56644 -0.000813419 0.000662794 -0.695168 4514.62 -104.034)" width="35.9375" height="9.37562"/>
   <polygon class="fil5" points="4377,-124 4377,-139 4384,-143 4384,-124 "/>
   <rect class="fil5" transform="matrix(-0.000813419 0.695168 -0.695168 -0.000813419 5220.39 -282.306)" width="35.9375" height="9.37562"/>
   <rect class="fil5" transform="matrix(-0.000813419 0.695168 -0.695168 -0.000813419 5220.34 -238.662)" width="35.9375" height="9.37562"/>
   <rect class="fil5" transform="matrix(-0.000813419 0.695168 -0.695168 -0.000813419 5220.49 -196.971)" width="35.9375" height="9.37562"/>
   <rect class="fil5" transform="matrix(-0.000813419 0.695168 -0.695168 -0.000813419 5220.53 -155.394)" width="35.9375" height="9.37562"/>
   <rect class="fil5" transform="matrix(-0.000813419 0.695168 -0.695168 -0.000813419 5220.19 -452.86)" width="35.9375" height="9.37562"/>
   <rect class="fil5" transform="matrix(-0.000813419 0.695168 -0.695168 -0.000813419 5220.14 -409.217)" width="35.9375" height="9.37562"/>
   <rect class="fil5" transform="matrix(-0.000813419 0.695168 -0.695168 -0.000813419 5220.3 -367.526)" width="35.9375" height="9.37562"/>
   <rect class="fil5" transform="matrix(-0.000813419 0.695168 -0.695168 -0.000813419 5220.34 -325.949)" width="35.9375" height="9.37562"/>
   <rect class="fil5" transform="matrix(-0.000813419 0.205922 -0.695168 -0.00024095 5220.21 -477.265)" width="35.9375" height="9.37562"/>
   <path class="fil25" d="M4254 -867l36 -34 637 -403c16,-10 30,-12 41,-7 11,6 10,22 10,34l0 671c0,22 -1,35 -21,48l-708 448 -8 5c0,-235 0,-470 0,-705 0,-20 3,-38 13,-57z"/>
   <path class="fil26" d="M4233 -828c0,-34 46,-70 84,-90 0,256 0,510 0,766 -25,14 -84,46 -84,91 0,-256 0,-511 0,-767z"/>
   <path class="fil4" d="M4233 -111c-3,-24 43,-49 78,-71l617 -391c16,-11 17,-23 17,-35l-1 -654c0,-5 0,-12 -4,-14 -4,-2 -11,1 -14,3 -206,130 -411,260 -616,391 -28,19 -78,55 -77,76l0 22c2,-13 19,-40 77,-77l599 -379c4,-3 12,-10 16,-7 4,2 3,13 3,17l0 621c0,7 -2,18 -16,25 -204,130 -398,253 -602,382 -27,20 -73,44 -77,63l0 28z"/>
   <rect class="fil5" transform="matrix(0.588048 -0.370755 0.370755 0.588048 4314.19 -877.745)" width="35.9375" height="9.37562"/>
   <rect class="fil5" transform="matrix(0.588048 -0.370755 0.370755 0.588048 4349.35 -900.153)" width="35.9375" height="9.37562"/>
   <rect class="fil5" transform="matrix(0.588048 -0.370755 0.370755 0.588048 4384.47 -922.401)" width="35.9375" height="9.37562"/>
   <rect class="fil5" transform="matrix(0.588048 -0.370755 0.370755 0.588048 4419.61 -944.553)" width="35.9375" height="9.37562"/>
   <rect class="fil5" transform="matrix(0.588048 -0.370755 0.370755 0.588048 4456.52 -967.829)" width="35.9375" height="9.37562"/>
   <rect class="fil5" transform="matrix(0.588048 -0.370755 0.370755 0.588048 4491.68 -990.237)" width="35.9375" height="9.37562"/>
   <rect class="fil5" transform="matrix(0.588048 -0.370755 0.370755 0.588048 4526.81 -1012.49)" width="35.9375" height="9.37562"/>
   <rect class="fil5" transform="matrix(0.588048 -0.370755 0.370755 0.588048 4561.94 -1034.64)" width="35.9375" height="9.37562"/>
   <rect class="fil5" transform="matrix(0.588048 -0.370755 0.370755 0.588048 4596.55 -1056.64)" width="35.9375" height="9.37562"/>
   <rect class="fil5" transform="matrix(0.588048 -0.370755 0.370755 0.588048 4631.71 -1079.04)" width="35.9375" height="9.37562"/>
   <rect class="fil5" transform="matrix(0.588048 -0.370755 0.370755 0.588048 4666.84 -1101.29)" width="35.9375" height="9.37562"/>
   <rect class="fil5" transform="matrix(0.588048 -0.370755 0.370755 0.588048 4701.97 -1123.44)" width="35.9375" height="9.37562"/>
   <rect class="fil5" transform="matrix(0.588048 -0.370755 0.370755 0.588048 4738.89 -1146.72)" width="35.9375" height="9.37562"/>
   <rect class="fil5" transform="matrix(0.588048 -0.370755 0.370755 0.588048 4774.05 -1169.13)" width="35.9375" height="9.37562"/>
   <rect class="fil5" transform="matrix(0.588048 -0.370755 0.370755 0.588048 4809.17 -1191.38)" width="35.9375" height="9.37562"/>
   <rect class="fil5" transform="matrix(0.588048 -0.370755 0.370755 0.588048 4844.3 -1213.53)" width="35.9375" height="9.37562"/>
   <rect class="fil5" transform="matrix(0.588048 -0.370755 0.370755 0.588048 4309.15 -194.486)" width="35.9375" height="9.37562"/>
   <rect class="fil5" transform="matrix(0.588048 -0.370755 0.370755 0.588048 4344.3 -216.895)" width="35.9375" height="9.37562"/>
   <rect class="fil5" transform="matrix(0.588048 -0.370755 0.370755 0.588048 4379.43 -239.143)" width="35.9375" height="9.37562"/>
   <rect class="fil5" transform="matrix(0.588048 -0.370755 0.370755 0.588048 4414.56 -261.295)" width="35.9375" height="9.37562"/>
   <rect class="fil5" transform="matrix(0.588048 -0.370755 0.370755 0.588048 4451.48 -284.571)" width="35.9375" height="9.37562"/>
   <rect class="fil5" transform="matrix(0.588048 -0.370755 0.370755 0.588048 4486.64 -306.979)" width="35.9375" height="9.37562"/>
   <rect class="fil5" transform="matrix(0.588048 -0.370755 0.370755 0.588048 4521.76 -329.227)" width="35.9375" height="9.37562"/>
   <rect class="fil5" transform="matrix(0.588048 -0.370755 0.370755 0.588048 4556.9 -351.379)" width="35.9375" height="9.37562"/>
   <rect class="fil5" transform="matrix(0.588048 -0.370755 0.370755 0.588048 4591.51 -373.377)" width="35.9375" height="9.37562"/>
   <rect class="fil5" transform="matrix(0.588048 -0.370755 0.370755 0.588048 4626.67 -395.786)" width="35.9375" height="9.37562"/>
   <rect class="fil5" transform="matrix(0.588048 -0.370755 0.370755 0.588048 4661.79 -418.034)" width="35.9375" height="9.37562"/>
   <rect class="fil5" transform="matrix(0.588048 -0.370755 0.370755 0.588048 4696.93 -440.186)" width="35.9375" height="9.37562"/>
   <rect class="fil5" transform="matrix(0.588048 -0.370755 0.370755 0.588048 4733.85 -463.462)" width="35.9375" height="9.37562"/>
   <rect class="fil5" transform="matrix(0.588048 -0.370755 0.370755 0.588048 4769 -485.87)" width="35.9375" height="9.37562"/>
   <rect class="fil5" transform="matrix(0.588048 -0.370755 0.370755 0.588048 4804.13 -508.118)" width="35.9375" height="9.37562"/>
   <rect class="fil5" transform="matrix(0.588048 -0.370755 0.370755 0.588048 4839.26 -530.27)" width="35.9375" height="9.37562"/>
   <rect class="fil5" transform="matrix(0.588048 -0.370755 0.370755 0.588048 4874.48 -552.452)" width="35.9375" height="9.37562"/>
   <polygon class="fil5" points="4910,-575 4927,-587 4930,-581 4913,-569 "/>
   <polygon class="fil5" points="4932,-597 4933,-623 4940,-623 4938,-597 "/>
   <rect class="fil5" transform="matrix(-0.000813419 0.695168 -0.695168 -0.000813419 4939.15 -1166.48)" width="35.9375" height="9.37562"/>
   <rect class="fil5" transform="matrix(-0.000813419 0.695168 -0.695168 -0.000813419 4939.1 -1122.83)" width="35.9375" height="9.37562"/>
   <rect class="fil5" transform="matrix(-0.000813419 0.695168 -0.695168 -0.000813419 4939.26 -1081.14)" width="35.9375" height="9.37562"/>
   <rect class="fil5" transform="matrix(-0.000813419 0.695168 -0.695168 -0.000813419 4939.3 -1039.57)" width="35.9375" height="9.37562"/>
   <rect class="fil5" transform="matrix(-0.000813419 0.695168 -0.695168 -0.000813419 4939.25 -998.031)" width="35.9375" height="9.37562"/>
   <rect class="fil5" transform="matrix(-0.000813419 0.695168 -0.695168 -0.000813419 4939.35 -957.019)" width="35.9375" height="9.37562"/>
   <rect class="fil5" transform="matrix(-0.000813419 0.695168 -0.695168 -0.000813419 4939.5 -915.327)" width="35.9375" height="9.37562"/>
   <rect class="fil5" transform="matrix(-0.000813419 0.695168 -0.695168 -0.000813419 4939.54 -873.751)" width="35.9375" height="9.37562"/>
   <rect class="fil5" transform="matrix(-0.000813419 0.695168 -0.695168 -0.000813419 4939.49 -832.215)" width="35.9375" height="9.37562"/>
   <rect class="fil5" transform="matrix(-0.000813419 0.695168 -0.695168 -0.000813419 4939.44 -788.572)" width="35.9375" height="9.37562"/>
   <rect class="fil5" transform="matrix(-0.000813419 0.695168 -0.695168 -0.000813419 4939.6 -746.881)" width="35.9375" height="9.37562"/>
   <rect class="fil5" transform="matrix(-0.000813419 0.695168 -0.695168 -0.000813419 4939.64 -705.304)" width="35.9375" height="9.37562"/>
   <rect class="fil5" transform="matrix(-0.000813419 0.695168 -0.695168 -0.000813419 4939.59 -663.768)" width="35.9375" height="9.37562"/>
   <rect class="fil5" transform="matrix(-0.000813419 0.695168 -0.695168 -0.000813419 4939.05 -1251.05)" width="35.9375" height="9.37562"/>
   <rect class="fil5" transform="matrix(-0.000813419 0.695168 -0.695168 -0.000813419 4939.21 -1209.36)" width="35.9375" height="9.37562"/>
   <rect class="fil5" transform="matrix(0.588048 -0.370755 0.370755 0.588048 4879.31 -1236.08)" width="35.9375" height="9.37562"/>
   <polygon class="fil5" points="4914,-1258 4929,-1267 4932,-1262 4918,-1253 "/>
   <path class="fil5" d="M4253 -831c7,-8 11,-12 19,-17 0,1 1,2 2,3 0,1 1,1 2,2 -8,6 -12,9 -19,16 0,-1 -1,-1 -1,-2 -1,-1 -2,-1 -3,-2z"/>
   <path class="fil5" d="M4282 -856c3,-2 7,-5 10,-7 4,-2 7,-5 11,-7 0,1 1,2 1,3 1,1 2,2 2,3 -3,2 -7,4 -10,6 -4,3 -7,5 -11,8 -1,-1 -1,-2 -2,-3 0,-1 -1,-2 -1,-3z"/>
   <path class="fil5" d="M4233 -804c1,-5 5,-11 12,-20 1,1 1,2 2,3 1,0 1,1 2,2 -6,6 -14,16 -16,23l0 -8z"/>
   <polygon class="fil5" points="4255,-158 4267,-167 4271,-162 4258,-152 "/>
   <path class="fil5" d="M4233 -132c2,-6 5,-11 12,-18 1,1 1,2 2,2 1,1 1,2 2,3 -9,5 -14,15 -16,20l0 -7z"/>
   <rect class="fil5" transform="matrix(0.588048 -0.370755 0.370755 0.588048 4275.47 -173.305)" width="35.9375" height="9.37562"/>
   <rect class="fil5" transform="matrix(-0.695168 -0.000813419 0.000813419 -0.695168 5030.96 -691.761)" width="35.9375" height="9.37562"/>
   <polygon class="fil5" points="4989,-692 4978,-692 4978,-698 4989,-698 "/>
   <path class="fil27" style="mask:url(#id6)" d="M4317 -120c144,-91 288,-182 431,-274 102,106 139,289 128,421 -110,-3 -427,2 -536,0 -6,0 -12,0 -17,-1 -58,-6 -87,-95 -37,-126l31 -20z"/>
   <polygon class="fil6" style="mask:url(#id8)" points="5008,-626 5008,-636 5208,-636 5207,-626 "/>
   <circle class="fil28" transform="matrix(0.17878 -0.151074 0.105741 0.158601 4846.82 -905.054)" r="165"/>
   <circle class="fil29" transform="matrix(0.17878 -0.151074 0.105741 0.158601 4844.18 -909.02)" r="165"/>
   <path class="fil30" d="M4848 -929l7 9c4,6 2,15 -3,20 -5,5 -14,7 -19,2l-6 -10c4,6 12,6 18,0 6,-6 7,-15 3,-21z"/>
   <path class="fil28" d="M4830 -928c6,-6 14,-7 18,-1 4,6 3,15 -3,21 -6,6 -14,6 -18,0 -4,-6 -3,-14 3,-20z"/>
   <g>
    <polygon class="fil31" points="5209,-626 5003,-626 5009,-856 5222,-842 "/>
    <path class="fil32" d="M5209 -626c-18,0 -36,0 -54,0 -1,-24 -12,-46 -24,-65l9 -156 82 5 -13 216z"/>
    <path class="fil33" d="M5042 -687l13 -7c-20,-34 45,8 62,14l3 -34 -16 -4 -1 16c-19,-8 -59,-36 -68,-10 -2,5 -2,9 0,14 2,4 4,7 7,11z"/>
    <path class="fil34" d="M5105 -699l1 -16 11 3 -2 28 -34 -17c-4,-1 -43,-23 -29,6l-9 5c-7,-8 -10,-18 -3,-27 12,-12 50,13 65,18z"/>
    <path class="fil34" d="M5123 -748c-1,-7 -7,-11 -13,-15 -17,-9 -33,-13 -51,-11 -10,2 -16,3 -19,12 -4,9 -5,21 2,29 15,15 85,13 81,-15zm-38 12c6,-1 18,-2 22,-7 1,-4 0,-6 -3,-9 -9,-8 -54,-20 -51,4 3,13 22,12 32,12z"/>
    <path class="fil34" d="M5126 -802c-1,-7 -7,-12 -13,-15 -17,-9 -34,-13 -52,-12 -9,3 -15,4 -19,13 -3,9 -4,21 3,28 15,16 84,14 81,-14zm-38 12c5,-1 18,-2 21,-7 2,-4 0,-7 -2,-9 -9,-8 -54,-20 -51,4 3,13 22,12 32,12z"/>
    <path class="fil35" d="M5105 -699l1 -16 11 3 -2 28 -34 -17c-4,-1 -43,-23 -29,6l-9 5c-7,-8 -10,-18 -3,-27 12,-12 50,13 65,18zm-63 12l13 -7c-20,-34 45,8 62,14l3 -34 -16 -4 -1 16c-19,-8 -59,-36 -68,-10 -2,5 -2,9 0,14 2,4 4,7 7,11z"/>
    <path class="fil36" d="M5123 -748c-1,-7 -7,-11 -13,-15 -17,-9 -33,-13 -51,-11 -10,2 -16,3 -19,12 -4,9 -5,21 2,29 15,15 85,13 81,-15zm-33 22l-10 1c-19,0 -44,-4 -40,-28 3,-21 18,-20 33,-19 4,0 7,1 10,1 14,3 40,12 39,26 -1,13 -22,18 -32,19z"/>
    <path class="fil36" d="M5055 -752c4,-18 53,-3 50,7 -2,9 -54,12 -50,-7zm30 16c6,-1 18,-2 22,-7 1,-4 0,-6 -3,-9 -9,-8 -54,-20 -51,4 3,13 22,12 32,12z"/>
    <path class="fil36" d="M5126 -802c-1,-7 -7,-12 -13,-15 -17,-9 -34,-13 -52,-12 -9,3 -15,4 -19,13 -3,9 -4,21 3,28 15,16 84,14 81,-14zm-34 22l-9 0c-20,1 -44,-3 -40,-28 3,-20 18,-19 33,-18 4,0 7,0 10,1 14,3 40,12 38,26 0,12 -21,17 -32,19z"/>
    <path class="fil36" d="M5058 -806c4,-18 53,-3 50,6 -2,10 -54,13 -50,-6zm30 16c5,-1 18,-2 21,-7 2,-4 0,-7 -2,-9 -9,-8 -54,-20 -51,4 3,13 22,12 32,12z"/>
    <polygon class="fil32" points="5009,-856 5004,-666 5025,-701 5035,-854 "/>
   </g>
   <polygon class="fil8" style="mask:url(#id10)" points="5008,-855 5121,-849 5123,-626 5008,-626 "/>
   <path class="fil7" d="M4233 -61c0,-25 20,-51 49,-70l661 -418 0 0 14 -9c18,-11 17,-20 20,-30 0,-2 1,-8 1,-14l0 0 0 -660 0 0c0,-38 0,-49 -22,-52 41,0 52,6 52,52l0 0 0 2 0 643 0 15 0 19c0,12 -5,28 -19,37l-47 29 -660 420c-40,28 -19,124 49,124 328,0 655,0 983,0 12,0 31,-7 35,-32 0,24 -13,56 -41,57l-977 0 0 0c-32,2 -61,-17 -79,-40 -20,-27 -18,-52 -19,-73z"/>
  </g>
  <path class="fil37 str0" style="mask:url(#id12)" d="M-2155 -2248l858 0 0 863c0,39 -32,71 -71,71l-716 0c-40,0 -71,-32 -71,-71l0 -863z"/>
  <path class="fil37 str0" d="M-2155 -2248l858 0 0 796c0,39 -32,71 -71,71l-716 0c-40,0 -71,-32 -71,-71l0 -796z"/>
  <path class="fil37 str0" d="M-2155 -2438l858 0 0 915c0,39 -32,71 -71,71l-716 0c-40,0 -71,-32 -71,-71l0 -915z"/>
  <path class="fil38" style="mask:url(#id14)" d="M-2150 -1591l849 -3 0 70c0,36 -26,68 -63,68l-725 0c-37,0 -61,-29 -61,-66l0 -69z"/>
  <rect class="fil39" x="-2155" y="-2539" width="858.511" height="78.9864"/>
  <circle class="fil40 str1" cx="-1986" cy="-2017" r="100"/>
  <path class="fil41" style="mask:url(#id16)" d="M-2150 -1455l848 -1 0 12c0,19 -25,58 -62,58l-725 0c-37,0 -61,-33 -61,-51l0 -18z"/>
  <path class="fil42" style="mask:url(#id18)" d="M-2150 -1388l849 -1 0 13c0,18 -26,58 -63,58l-725 0c-37,0 -61,-33 -61,-52l0 -18z"/>
  <rect class="fil43" x="-2035" y="-2076" width="96.8513" height="96.8513"/>
  <rect class="fil43" x="-1863" y="-2076" width="96.8513" height="96.8513"/>
  <rect class="fil43" x="-1692" y="-2076" width="96.8513" height="96.8513"/>
  <rect class="fil43" x="-1521" y="-2076" width="96.8513" height="96.8513"/>
  <rect class="fil43" x="-2035" y="-1897" width="96.8513" height="96.8513"/>
  <rect class="fil43" x="-1863" y="-1898" width="96.8513" height="96.8513"/>
  <rect class="fil43" x="-1692" y="-1898" width="96.8513" height="96.8513"/>
  <rect class="fil43" x="-1521" y="-1897" width="96.8513" height="96.8513"/>
  <rect class="fil43" x="-2035" y="-1718" width="96.8513" height="96.8513"/>
  <rect class="fil43" x="-1863" y="-1718" width="96.8513" height="96.8513"/>
  <rect class="fil43" x="-1692" y="-1718" width="96.8513" height="96.8513"/>
  <rect class="fil43" x="-1521" y="-1718" width="96.8513" height="96.8513"/>
  <rect class="fil29" x="-2035" y="-2065" width="96.8513" height="96.8513"/>
  <rect class="fil29" x="-1863" y="-2066" width="96.8513" height="96.8513"/>
  <rect class="fil29" x="-1692" y="-2066" width="96.8513" height="96.8513"/>
  <rect class="fil29" x="-1521" y="-2065" width="96.8513" height="96.8513"/>
  <rect class="fil29" x="-2035" y="-1887" width="96.8513" height="96.8513"/>
  <rect class="fil29" x="-1863" y="-1887" width="96.8513" height="96.8513"/>
  <rect class="fil29" x="-1692" y="-1887" width="96.8513" height="96.8513"/>
  <rect class="fil29" x="-1521" y="-1887" width="96.8513" height="96.8513"/>
  <rect class="fil29" x="-2035" y="-1708" width="96.8513" height="96.8513"/>
  <rect class="fil29" x="-1863" y="-1708" width="96.8513" height="96.8513"/>
  <rect class="fil29" x="-1692" y="-1708" width="96.8513" height="96.8513"/>
  <rect class="fil29" x="-1521" y="-1708" width="96.8513" height="96.8513"/>
  <path class="fil44" d="M-2155 -2412l61 0 0 -124 70 0 0 124 63 0 0 -124 70 0 0 124 63 0 0 -124 70 0 0 124 63 0 0 -124 71 0 0 124 62 0 0 -124 71 0 0 124 63 0 0 -124 70 0 0 124 61 0c0,67 0,145 0,212 -118,84 -309,59 -429,26 -134,-38 -282,-60 -429,12l0 -250z"/>
  <path class="fil45" d="M-2155 -2438l61 0 0 -124 70 0 0 124 63 0 0 -124 70 0 0 124 63 0 0 -124 70 0 0 124 63 0 0 -124 71 0 0 124 62 0 0 -124 71 0 0 124 63 0 0 -124 70 0 0 124 61 0c0,67 0,144 0,211 -118,84 -309,60 -429,26 -134,-37 -282,-60 -429,13l0 -250z"/>
  <path class="fil46" style="mask:url(#id20)" d="M-2094 -2518l0 -44 70 0 0 44 -70 0zm133 0l0 -44 70 0 0 44 -70 0zm133 0l0 -44 70 0 0 44 -70 0zm133 0l0 -44 71 0 0 44 -71 0zm133 0l0 -44 71 0 0 44 -71 0zm134 0l0 -44 70 0 0 44 -70 0z"/>
  <g>
   <g style="clip-path:url(#id22)">
    <polygon class="fil47" points="250,250 252,-104 265,-103 "/>
    <polygon id="1" class="fil48" points="250,250 263,-103 274,-103 "/>
    <polygon id="2" class="fil48" points="250,250 272,-103 283,-102 "/>
    <polygon id="3" class="fil49" points="250,250 280,-102 291,-101 "/>
    <polygon id="4" class="fil50" points="250,250 289,-101 300,-100 "/>
    <polygon id="5" class="fil50" points="250,250 298,-100 308,-99 "/>
    <polygon id="6" class="fil51" points="250,250 306,-99 317,-97 "/>
    <polygon id="7" class="fil52" points="250,250 315,-98 325,-95 "/>
    <polygon id="8" class="fil53" points="250,250 323,-96 334,-94 "/>
    <polygon id="9" class="fil53" points="250,250 332,-94 342,-91 "/>
    <polygon id="10" class="fil54" points="250,250 340,-92 351,-89 "/>
    <polygon id="11" class="fil55" points="250,250 348,-90 359,-86 "/>
    <polygon id="12" class="fil55" points="250,250 357,-87 367,-84 "/>
    <polygon id="13" class="fil56" points="250,250 365,-84 375,-81 "/>
    <polygon id="14" class="fil57" points="250,250 373,-81 383,-78 "/>
    <polygon id="15" class="fil58" points="250,250 381,-78 391,-74 "/>
    <polygon id="16" class="fil59" points="250,250 389,-75 399,-71 "/>
    <polygon id="17" class="fil60" points="250,250 397,-71 407,-67 "/>
    <polygon id="18" class="fil61" points="250,250 405,-68 415,-63 "/>
    <polygon id="19" class="fil61" points="250,250 413,-64 422,-59 "/>
    <polygon id="20" class="fil62" points="250,250 420,-60 430,-54 "/>
    <polygon id="21" class="fil62" points="250,250 428,-55 437,-50 "/>
    <polygon id="22" class="fil62" points="250,250 435,-51 445,-45 "/>
    <polygon id="23" class="fil63" points="250,250 443,-46 452,-40 "/>
    <polygon id="24" class="fil63" points="250,250 450,-42 459,-35 "/>
    <polygon id="25" class="fil64" points="250,250 457,-37 466,-30 "/>
    <polygon id="26" class="fil65" points="250,250 464,-31 473,-25 "/>
    <polygon id="27" class="fil66" points="250,250 471,-26 479,-19 "/>
    <polygon id="28" class="fil66" points="250,250 478,-21 486,-13 "/>
    <polygon id="29" class="fil67" points="250,250 484,-15 492,-8 "/>
    <polygon id="30" class="fil68" points="250,250 491,-9 499,-2 "/>
    <polygon id="31" class="fil68" points="250,250 497,-3 505,5 "/>
    <polygon id="32" class="fil69" points="250,250 503,3 511,11 "/>
    <polygon id="33" class="fil70" points="250,250 509,9 516,17 "/>
    <polygon id="34" class="fil70" points="250,250 515,16 522,24 "/>
    <polygon id="35" class="fil71" points="250,250 521,22 527,31 "/>
    <polygon id="36" class="fil72" points="250,250 526,29 533,38 "/>
    <polygon id="37" class="fil73" points="250,250 531,36 538,45 "/>
    <polygon id="38" class="fil73" points="250,250 537,43 543,52 "/>
    <polygon id="39" class="fil74" points="250,250 542,50 548,59 "/>
    <polygon id="40" class="fil75" points="250,250 546,57 552,66 "/>
    <polygon id="41" class="fil75" points="250,250 551,65 557,74 "/>
    <polygon id="42" class="fil76" points="250,250 555,72 561,81 "/>
    <polygon id="43" class="fil77" points="250,250 560,80 565,89 "/>
    <polygon id="44" class="fil77" points="250,250 564,87 569,97 "/>
    <polygon id="45" class="fil78" points="250,250 568,95 572,105 "/>
    <polygon id="46" class="fil78" points="250,250 571,103 576,113 "/>
    <polygon id="47" class="fil79" points="250,250 575,111 579,121 "/>
    <polygon id="48" class="fil80" points="250,250 578,119 582,129 "/>
    <polygon id="49" class="fil81" points="250,250 581,127 585,137 "/>
    <polygon id="50" class="fil82" points="250,250 584,135 588,145 "/>
    <polygon id="51" class="fil83" points="250,250 587,143 590,154 "/>
    <polygon id="52" class="fil84" points="250,250 590,152 592,162 "/>
    <polygon id="53" class="fil84" points="250,250 592,160 595,170 "/>
    <polygon id="54" class="fil82" points="250,250 594,168 596,179 "/>
    <polygon id="55" class="fil82" points="250,250 596,177 598,187 "/>
    <polygon id="56" class="fil80" points="250,250 598,185 599,196 "/>
    <polygon id="57" class="fil79" points="250,250 599,194 601,205 "/>
    <polygon id="58" class="fil78" points="250,250 600,202 602,213 "/>
    <polygon id="59" class="fil78" points="250,250 601,211 602,222 "/>
    <polygon id="60" class="fil85" points="250,250 602,220 603,230 "/>
    <polygon id="61" class="fil76" points="250,250 603,228 603,239 "/>
    <polygon id="62" class="fil76" points="250,250 603,237 604,248 "/>
    <polygon id="63" class="fil75" points="250,250 604,246 604,257 "/>
    <polygon id="64" class="fil75" points="250,250 604,254 603,265 "/>
    <polygon id="65" class="fil74" points="250,250 603,263 603,274 "/>
    <polygon id="66" class="fil73" points="250,250 603,272 602,283 "/>
    <polygon id="67" class="fil86" points="250,250 602,280 601,291 "/>
    <polygon id="68" class="fil86" points="250,250 601,289 600,300 "/>
    <polygon id="69" class="fil70" points="250,250 600,298 599,308 "/>
    <polygon id="70" class="fil70" points="250,250 599,306 597,317 "/>
    <polygon id="71" class="fil87" points="250,250 598,315 595,325 "/>
    <polygon id="72" class="fil88" points="250,250 596,323 594,334 "/>
    <polygon id="73" class="fil88" points="250,250 594,332 591,342 "/>
    <polygon id="74" class="fil66" points="250,250 592,340 589,351 "/>
    <polygon id="75" class="fil66" points="250,250 590,348 586,359 "/>
    <polygon id="76" class="fil65" points="250,250 587,357 584,367 "/>
    <polygon id="77" class="fil64" points="250,250 584,365 581,375 "/>
    <polygon id="78" class="fil89" points="250,250 581,373 578,383 "/>
    <polygon id="79" class="fil89" points="250,250 578,381 574,391 "/>
    <polygon id="80" class="fil62" points="250,250 575,389 571,399 "/>
    <polygon id="81" class="fil62" points="250,250 571,397 567,407 "/>
    <polygon id="82" class="fil90" points="250,250 568,405 563,415 "/>
    <polygon id="83" class="fil91" points="250,250 564,413 559,422 "/>
    <polygon id="84" class="fil92" points="250,250 560,420 554,430 "/>
    <polygon id="85" class="fil92" points="250,250 555,428 550,437 "/>
    <polygon id="86" class="fil58" points="250,250 551,435 545,445 "/>
    <polygon id="87" class="fil57" points="250,250 546,443 540,452 "/>
    <polygon id="88" class="fil57" points="250,250 542,450 535,459 "/>
    <polygon id="89" class="fil93" points="250,250 537,457 530,466 "/>
    <polygon id="90" class="fil93" points="250,250 531,464 525,473 "/>
    <polygon id="91" class="fil94" points="250,250 526,471 519,479 "/>
    <polygon id="92" class="fil53" points="250,250 521,478 513,486 "/>
    <polygon id="93" class="fil52" points="250,250 515,484 508,492 "/>
    <polygon id="94" class="fil95" points="250,250 509,491 502,499 "/>
    <polygon id="95" class="fil96" points="250,250 503,497 495,505 "/>
    <polygon id="96" class="fil96" points="250,250 497,503 489,511 "/>
    <polygon id="97" class="fil48" points="250,250 491,509 483,516 "/>
    <polygon id="98" class="fil48" points="250,250 484,515 476,522 "/>
    <polygon id="99" class="fil48" points="250,250 478,521 469,527 "/>
    <polygon id="100" class="fil97" points="250,250 471,526 462,533 "/>
    <polygon id="101" class="fil97" points="250,250 464,531 455,538 "/>
    <polygon id="102" class="fil98" points="250,250 457,537 448,543 "/>
    <polygon id="103" class="fil99" points="250,250 450,542 441,548 "/>
    <polygon id="104" class="fil100" points="250,250 443,546 434,552 "/>
    <polygon id="105" class="fil101" points="250,250 435,551 426,557 "/>
    <polygon id="106" class="fil102" points="250,250 428,555 419,561 "/>
    <polygon id="107" class="fil102" points="250,250 420,560 411,565 "/>
    <polygon id="108" class="fil103" points="250,250 413,564 403,569 "/>
    <polygon id="109" class="fil104" points="250,250 405,568 395,572 "/>
    <polygon id="110" class="fil105" points="250,250 397,571 387,576 "/>
    <polygon id="111" class="fil106" points="250,250 389,575 379,579 "/>
    <polygon id="112" class="fil107" points="250,250 381,578 371,582 "/>
    <polygon id="113" class="fil108" points="250,250 373,581 363,585 "/>
    <polygon id="114" class="fil109" points="250,250 365,584 355,588 "/>
    <polygon id="115" class="fil110" points="250,250 357,587 346,590 "/>
    <polygon id="116" class="fil111" points="250,250 348,590 338,592 "/>
    <polygon id="117" class="fil112" points="250,250 340,592 330,595 "/>
    <polygon id="118" class="fil112" points="250,250 332,594 321,596 "/>
    <polygon id="119" class="fil113" points="250,250 323,596 313,598 "/>
    <polygon id="120" class="fil114" points="250,250 315,598 304,599 "/>
    <polygon id="121" class="fil115" points="250,250 306,599 295,601 "/>
    <polygon id="122" class="fil116" points="250,250 298,600 287,602 "/>
    <polygon id="123" class="fil117" points="250,250 289,601 278,602 "/>
    <polygon id="124" class="fil117" points="250,250 280,602 270,603 "/>
    <polygon id="125" class="fil117" points="250,250 272,603 261,603 "/>
    <polygon id="126" class="fil115" points="250,250 263,603 252,604 "/>
    <polygon id="127" class="fil115" points="250,250 254,604 243,604 "/>
    <polygon id="128" class="fil118" points="250,250 246,604 235,603 "/>
    <polygon id="129" class="fil118" points="250,250 237,603 226,603 "/>
    <polygon id="130" class="fil119" points="250,250 228,603 217,602 "/>
    <polygon id="131" class="fil119" points="250,250 220,602 209,601 "/>
    <polygon id="132" class="fil120" points="250,250 211,601 200,600 "/>
    <polygon id="133" class="fil120" points="250,250 202,600 192,599 "/>
    <polygon id="134" class="fil121" points="250,250 194,599 183,597 "/>
    <polygon id="135" class="fil122" points="250,250 185,598 175,595 "/>
    <polygon id="136" class="fil122" points="250,250 177,596 166,594 "/>
    <polygon id="137" class="fil123" points="250,250 168,594 158,591 "/>
    <polygon id="138" class="fil123" points="250,250 160,592 149,589 "/>
    <polygon id="139" class="fil124" points="250,250 152,590 141,586 "/>
    <polygon id="140" class="fil124" points="250,250 143,587 133,584 "/>
    <polygon id="141" class="fil125" points="250,250 135,584 125,581 "/>
    <polygon id="142" class="fil126" points="250,250 127,581 117,578 "/>
    <polygon id="143" class="fil127" points="250,250 119,578 109,574 "/>
    <polygon id="144" class="fil128" points="250,250 111,575 101,571 "/>
    <polygon id="145" class="fil128" points="250,250 103,571 93,567 "/>
    <polygon id="146" class="fil129" points="250,250 95,568 85,563 "/>
    <polygon id="147" class="fil129" points="250,250 87,564 78,559 "/>
    <polygon id="148" class="fil130" points="250,250 80,560 70,554 "/>
    <polygon id="149" class="fil131" points="250,250 72,555 63,550 "/>
    <polygon id="150" class="fil132" points="250,250 65,551 55,545 "/>
    <polygon id="151" class="fil133" points="250,250 57,546 48,540 "/>
    <polygon id="152" class="fil134" points="250,250 50,542 41,535 "/>
    <polygon id="153" class="fil135" points="250,250 43,537 34,530 "/>
    <polygon id="154" class="fil136" points="250,250 36,531 27,525 "/>
    <polygon id="155" class="fil137" points="250,250 29,526 21,519 "/>
    <polygon id="156" class="fil137" points="250,250 22,521 14,513 "/>
    <polygon id="157" class="fil138" points="250,250 16,515 8,508 "/>
    <polygon id="158" class="fil139" points="250,250 9,509 1,502 "/>
    <polygon id="159" class="fil140" points="250,250 3,503 -5,495 "/>
    <polygon id="160" class="fil141" points="250,250 -3,497 -11,489 "/>
    <polygon id="161" class="fil142" points="250,250 -9,491 -16,483 "/>
    <polygon id="162" class="fil143" points="250,250 -15,484 -22,476 "/>
    <polygon id="163" class="fil144" points="250,250 -21,478 -27,469 "/>
    <polygon id="164" class="fil144" points="250,250 -26,471 -33,462 "/>
    <polygon id="165" class="fil145" points="250,250 -31,464 -38,455 "/>
    <polygon id="166" class="fil146" points="250,250 -37,457 -43,448 "/>
    <polygon id="167" class="fil147" points="250,250 -42,450 -48,441 "/>
    <polygon id="168" class="fil148" points="250,250 -46,443 -52,434 "/>
    <polygon id="169" class="fil149" points="250,250 -51,435 -57,426 "/>
    <polygon id="170" class="fil150" points="250,250 -55,428 -61,419 "/>
    <polygon id="171" class="fil151" points="250,250 -60,420 -65,411 "/>
    <polygon id="172" class="fil152" points="250,250 -64,413 -69,403 "/>
    <polygon id="173" class="fil152" points="250,250 -68,405 -72,395 "/>
    <polygon id="174" class="fil153" points="250,250 -71,397 -76,387 "/>
    <polygon id="175" class="fil153" points="250,250 -75,389 -79,379 "/>
    <polygon id="176" class="fil154" points="250,250 -78,381 -82,371 "/>
    <polygon id="177" class="fil155" points="250,250 -81,373 -85,363 "/>
    <polygon id="178" class="fil156" points="250,250 -84,365 -88,355 "/>
    <polygon id="179" class="fil157" points="250,250 -87,357 -90,346 "/>
    <polygon id="180" class="fil157" points="250,250 -90,348 -92,338 "/>
    <polygon id="181" class="fil158" points="250,250 -92,340 -95,330 "/>
    <polygon id="182" class="fil158" points="250,250 -94,332 -96,321 "/>
    <polygon id="183" class="fil159" points="250,250 -96,323 -98,313 "/>
    <polygon id="184" class="fil159" points="250,250 -98,315 -99,304 "/>
    <polygon id="185" class="fil160" points="250,250 -99,306 -101,295 "/>
    <polygon id="186" class="fil161" points="250,250 -100,298 -102,287 "/>
    <polygon id="187" class="fil161" points="250,250 -101,289 -102,278 "/>
    <polygon id="188" class="fil162" points="250,250 -102,280 -103,270 "/>
    <polygon id="189" class="fil162" points="250,250 -103,272 -103,261 "/>
    <polygon id="190" class="fil163" points="250,250 -103,263 -104,252 "/>
    <polygon id="191" class="fil163" points="250,250 -104,254 -104,243 "/>
    <polygon id="192" class="fil164" points="250,250 -104,246 -103,235 "/>
    <polygon id="193" class="fil164" points="250,250 -103,237 -103,226 "/>
    <polygon id="194" class="fil165" points="250,250 -103,228 -102,217 "/>
    <polygon id="195" class="fil163" points="250,250 -102,220 -101,209 "/>
    <polygon id="196" class="fil163" points="250,250 -101,211 -100,200 "/>
    <polygon id="197" class="fil166" points="250,250 -100,202 -99,192 "/>
    <polygon id="198" class="fil162" points="250,250 -99,194 -97,183 "/>
    <polygon id="199" class="fil167" points="250,250 -98,185 -95,175 "/>
    <polygon id="200" class="fil168" points="250,250 -96,177 -94,166 "/>
    <polygon id="201" class="fil161" points="250,250 -94,168 -91,158 "/>
    <polygon id="202" class="fil160" points="250,250 -92,160 -89,149 "/>
    <polygon id="203" class="fil169" points="250,250 -90,152 -86,141 "/>
    <polygon id="204" class="fil170" points="250,250 -87,143 -84,133 "/>
    <polygon id="205" class="fil171" points="250,250 -84,135 -81,125 "/>
    <polygon id="206" class="fil172" points="250,250 -81,127 -78,117 "/>
    <polygon id="207" class="fil172" points="250,250 -78,119 -74,109 "/>
    <polygon id="208" class="fil173" points="250,250 -75,111 -71,101 "/>
    <polygon id="209" class="fil174" points="250,250 -71,103 -67,93 "/>
    <polygon id="210" class="fil174" points="250,250 -68,95 -63,85 "/>
    <polygon id="211" class="fil175" points="250,250 -64,87 -59,78 "/>
    <polygon id="212" class="fil175" points="250,250 -60,80 -54,70 "/>
    <polygon id="213" class="fil176" points="250,250 -55,72 -50,63 "/>
    <polygon id="214" class="fil177" points="250,250 -51,65 -45,55 "/>
    <polygon id="215" class="fil177" points="250,250 -46,57 -40,48 "/>
    <polygon id="216" class="fil178" points="250,250 -42,50 -35,41 "/>
    <polygon id="217" class="fil179" points="250,250 -37,43 -30,34 "/>
    <polygon id="218" class="fil180" points="250,250 -31,36 -25,27 "/>
    <polygon id="219" class="fil180" points="250,250 -26,29 -19,21 "/>
    <polygon id="220" class="fil181" points="250,250 -21,22 -13,14 "/>
    <polygon id="221" class="fil182" points="250,250 -15,16 -8,8 "/>
    <polygon id="222" class="fil182" points="250,250 -9,9 -2,1 "/>
    <polygon id="223" class="fil183" points="250,250 -3,3 5,-5 "/>
    <polygon id="224" class="fil184" points="250,250 3,-3 11,-11 "/>
    <polygon id="225" class="fil185" points="250,250 9,-9 17,-16 "/>
    <polygon id="226" class="fil185" points="250,250 16,-15 24,-22 "/>
    <polygon id="227" class="fil186" points="250,250 22,-21 31,-27 "/>
    <polygon id="228" class="fil187" points="250,250 29,-26 38,-33 "/>
    <polygon id="229" class="fil187" points="250,250 36,-31 45,-38 "/>
    <polygon id="230" class="fil188" points="250,250 43,-37 52,-43 "/>
    <polygon id="231" class="fil189" points="250,250 50,-42 59,-48 "/>
    <polygon id="232" class="fil190" points="250,250 57,-46 66,-52 "/>
    <polygon id="233" class="fil190" points="250,250 65,-51 74,-57 "/>
    <polygon id="234" class="fil191" points="250,250 72,-55 81,-61 "/>
    <polygon id="235" class="fil191" points="250,250 80,-60 89,-65 "/>
    <polygon id="236" class="fil192" points="250,250 87,-64 97,-69 "/>
    <polygon id="237" class="fil193" points="250,250 95,-68 105,-72 "/>
    <polygon id="238" class="fil193" points="250,250 103,-71 113,-76 "/>
    <polygon id="239" class="fil194" points="250,250 111,-75 121,-79 "/>
    <polygon id="240" class="fil195" points="250,250 119,-78 129,-82 "/>
    <polygon id="241" class="fil195" points="250,250 127,-81 137,-85 "/>
    <polygon id="242" class="fil196" points="250,250 135,-84 145,-88 "/>
    <polygon id="243" class="fil197" points="250,250 143,-87 154,-90 "/>
    <polygon id="244" class="fil198" points="250,250 152,-90 162,-92 "/>
    <polygon id="245" class="fil199" points="250,250 160,-92 170,-95 "/>
    <polygon id="246" class="fil200" points="250,250 168,-94 179,-96 "/>
    <polygon id="247" class="fil200" points="250,250 177,-96 187,-98 "/>
    <polygon id="248" class="fil201" points="250,250 185,-98 196,-99 "/>
    <polygon id="249" class="fil202" points="250,250 194,-99 205,-101 "/>
    <polygon id="250" class="fil203" points="250,250 202,-100 213,-102 "/>
    <polygon id="251" class="fil204" points="250,250 211,-101 222,-102 "/>
    <polygon id="252" class="fil204" points="250,250 220,-102 230,-103 "/>
    <polygon id="253" class="fil47" points="250,250 228,-103 239,-103 "/>
    <polygon id="254" class="fil47" points="250,250 237,-103 248,-104 "/>
    <polygon id="255" class="fil47" points="250,250 246,-104 254,-104 "/>
   </g>
  </g>
  <path class="fil205" d="M350 250c0,55 -45,100 -100,100 -55,0 -100,-45 -100,-100 0,-55 45,-100 100,-100 55,0 100,45 100,100z"/>
 </g>
</svg>
